<?xml version="1.0" encoding="UTF-8"?>
<svg
   xmlns="http://www.w3.org/2000/svg"
   version="1.1"
   width="600"
   height="600"
   style="fill:#554926;font-family:Arial;"
   >
  <text
     x="75.253036"
     y="406.40814"
     transform="matrix(1.1355354,-0.40347186,0.26254956,0.78735426,0,0)"
     style="font-size:351.50378418px;">$</text>
  <text
     x="-123.84638"
     y="260.19312"
     transform="matrix(0.598915,-0.75849947,0.81207999,0.64122248,0,0)"
     style="font-size:109.23202515px;">$</text>
  <text
     x="-371.9696"
     y="416.55927"
     transform="matrix(0.17407724,-1.2100124,0.80967997,0.1164838,0,0)"
     style="font-size:345.42199707px;">$</text>
  <text
     x="305.3728"
     y="-206.8611"
     transform="matrix(0.59699033,1.0977874,-0.67424021,0.43522916,0,0)"
     style="font-size:330.9302063px;">$</text>
  <text
     x="432.832"
     y="-34.766956"
     transform="matrix(0.84266079,0.47322665,-0.50665546,0.90218644,0,0)"
     style="font-size:109.23203278px;">$</text>
  <text
     x="278.28952"
     y="-484.79208"
     transform="matrix(-0.28706016,0.92283102,-0.98801996,-0.30733815,0,0)"
     style="font-size:109.23202515px;">$</text>
  <text
     x="256.40848"
     y="518.16132"
     transform="scale(1.0038703,0.99614463)"
     style="font-size:371.72875977px;">)</text>
  <text
     x="-147.42432"
     y="683.77881"
     transform="matrix(-0.50070232,-2.6563508,0.38656286,0.05361782,0,0)"
     style="font-size:112.24888611px;">|</text>
</svg>
