<?xml version="1.0" standalone="no"?>
<!DOCTYPE svg PUBLIC "-//W3C//DTD SVG 1.1//EN" "http://www.w3.org/Graphics/SVG/1.1/DTD/svg11.dtd" >
<svg xmlns="http://www.w3.org/2000/svg">
<metadata>
This is a custom SVG webfont generated by Font Squirrel.
Copyright   : Copyright c Typographer Mediengestaltung 1999 All rights reserved
</metadata>
<defs>
<font id="GabrielleRegular" horiz-adv-x="1720" >
<font-face units-per-em="2048" ascent="1638" descent="-410" />
<missing-glyph horiz-adv-x="634" />
<glyph unicode=" "  horiz-adv-x="634" />
<glyph unicode="&#x09;" horiz-adv-x="634" />
<glyph unicode="&#xa0;" horiz-adv-x="634" />
<glyph unicode="!" horiz-adv-x="395" d="M2 -12q0 -6 6 -19q156 0 156 133q0 41 -17 41q-27 0 -56.5 -16t-57.5 -16q-6 -90 -31 -123zM154 348l47 -4q94 305 186 566t184 485q0 4 -5 11t-3 13q-12 4 -39 4q-4 0 -59 -30q-49 -29 -55 -35l-242 -957l-7 -29q-3 -14 -7 -24z" />
<glyph unicode="&#x22;" horiz-adv-x="491" d="M102 1083q0 -14 7 -16q86 0 159 80q76 82 76 168q0 31 -18 31q-45 0 -109 -33q0 -70 -47 -154q-27 -47 -68 -76zM369 1083q0 -14 6 -16q86 0 160 80q76 82 75 168q0 31 -18 31q-45 0 -109 -33q0 -70 -47 -154q-26 -47 -67 -76z" />
<glyph unicode="#" horiz-adv-x="966" d="M-25 410q174 -25 246 -31q-170 -324 -170 -414q0 -10 8 -10q47 27 117 47q41 12 43 39q6 35 10 60.5t7 41.5q10 47 32.5 106.5t57.5 131.5l237 -2q-152 -279 -151 -414q0 -10 8 -10q47 27 117 47q37 12 43 39l7 62q3 28 5 44q8 53 26.5 112.5t51.5 125.5l116 2h72 q43 51 57 84q-18 0 -45.5 -1t-62.5 -3t-62 -2h-45q51 131 103 242h176l23.5 46t17.5 33q-47 0 -92 1t-90 4q16 41 42.5 99t65.5 134q63 125 64 133q0 10 -72 51l-115 -250l-78 -163l-237 12l43 95l67 140q66 135 66 142q0 12 -25.5 31.5t-40.5 23.5l-123 -260 q-52 -106 -81 -172q-115 2 -205 31q-27 -23 -47.5 -49.5t-36.5 -55.5q125 -20 244 -24l-63 -139l-40 -85q-86 0 -205 37q-1 0 -1 1q-12 0 -50 -46q-41 -47 -35 -67zM360 473l61 140l42 98l246 -2l-62 -139l-47 -105z" />
<glyph unicode="$" horiz-adv-x="917" d="M-35 121q0 -80 90 -117q68 -25 160 -24q41 0 84 6l-39 -181l62 -8l26 120q10 48 17 75q156 16 204 47q94 61 166 154q82 106 82 204q0 175 -249 175q-19 0 -40 -1l-36 -2l96 441q143 0 190 -49q2 -14 10 -33q6 -23 17 -23q33 0 57 41q18 33 19 70q0 111 -197 110 q-10 0 -28.5 -1t-43.5 -3l39 176l-59 9l-43 -193q-70 -16 -105 -33q-125 -61 -235 -190q-123 -145 -123 -270q0 -82 47 -136q45 -51 123 -51h6l137 2l-33 -150l-47 -208q-72 4 -133 20q-98 27 -98 74q-4 74 -27 74q-33 0 -63 -45q-33 -45 -33 -80zM176 659q0 143 107 238 q92 86 241 109l-96 -439l-129 -6q-18 0 -39.5 7t-40 21.5t-31 33t-12.5 36.5zM383 78l80 360l125 2q55 0 95 -31.5t40 -84.5q0 -115 -119 -183q-94 -57 -221 -63z" />
<glyph unicode="%" horiz-adv-x="1177" d="M119 770q66 -72 153 -72q137 0 240 101q103 99 103 227q0 5 -1 10q0 94 -43 94q-29 0 -108 -43q0 -6 20.5 -49t20.5 -75q0 -76 -41 -136q-45 -63 -119 -63q-70 0 -113 49t-43 121q0 88 48 164q51 88 137 88q72 0 112 -43l68 22q29 10 29 33q0 14 -54 31q-43 12 -67 12 q-113 0 -217 -55q-188 -101 -189 -249q0 -93 64 -167zM233 -41l78 2l588 1274l-80 -2zM641 45q63 -70 154 -70q137 0 239.5 100.5t102.5 230.5v5q0 94 -43 95q-29 0 -109 -43q0 -6 20.5 -49.5t20.5 -75.5q0 -76 -41 -136q-45 -63 -119 -63q-70 0 -112.5 49t-42.5 121 q0 88 47 164q51 88 137 88q72 0 113 -43l67 22q29 10 29 33q0 14 -53 31q-43 12 -68 12q-113 0 -217 -55q-188 -101 -188 -249q-1 -93 63 -167z" />
<glyph unicode="&#x26;" horiz-adv-x="1501" d="M0 211q0 -182 170 -250q111 -45 330 -45q377 0 612 248q193 205 193 428h43q14 -2 22 -2h12h5q40 0 106 35q68 37 68 77q0 14 -19 15q-8 0 -28.5 -8.5t-28.5 -8.5h-254q-41 0 -68.5 -1t-40.5 -3q-49 -8 -102 -49q-51 -41 -83 -72.5t-42 -54.5q14 0 18 2l100 49 q50 25 105 25q98 0 99 -78q0 -182 -189 -358q-219 -197 -522 -197q-117 0 -217 55q-123 65 -123 166q0 231 254 387q174 106 344 134q96 66 96 83q0 23 -20 25q-207 35 -273 57q-131 45 -131 138q0 115 142 204q125 82 247 82q63 0 119 -20q80 -29 80 -76q0 -37 -43 -82 q27 -31 70 -31q51 0 92 35t41 84q0 78 -94 117q-74 29 -160 29q-197 -2 -391 -99q-231 -121 -232 -299q0 -106 111 -170q49 -27 205 -73q-193 -49 -371 -162q-252 -158 -252 -336z" />
<glyph unicode="'" horiz-adv-x="225" d="M102 1083q0 -14 7 -16q86 0 159 80q76 82 76 168q0 31 -18 31q-45 0 -109 -33q0 -70 -47 -154q-27 -47 -68 -76z" />
<glyph unicode="(" horiz-adv-x="462" d="M78 125q0 -86 9 -178t30 -195l28 -146q12 -62 23 -104h39q-10 88 -15.5 160t-5.5 127q0 203 58 475q20 100 42.5 184t45.5 154q66 193 160 373t219 348l-33 27q-414 -465 -537 -795q-63 -166 -63 -430z" />
<glyph unicode=")" horiz-adv-x="462" d="M-231 -471l32 -27q412 467 535 793q63 166 63 430q0 158 -41 375l-22 112l-29 138h-39q10 -88 15.5 -160t5.5 -127q0 -203 -58 -477q-47 -215 -86 -338q-128 -383 -376 -719z" />
<glyph unicode="*" horiz-adv-x="823" d="M78 756q35 -53 57.5 -95.5t36.5 -74.5q70 113 217 233q25 -145 25 -319q76 57 190 80q-45 51 -89 114.5t-85 141.5q51 -4 102.5 -12.5t102.5 -20.5l127 -37q-26 79 -26 153q0 15 1 29q-47 -16 -119.5 -32.5t-171.5 -32.5q84 182 177 276q-131 18 -199 47q0 -174 -31 -303 l-138 150q-54 61 -81 96q-57 -111 -92 -158q186 -61 289 -129q-172 -88 -293 -106z" />
<glyph unicode="+" horiz-adv-x="1024" d="M51 475l113 33l289 -6q-10 -135 -17.5 -211t-11.5 -96v-22q0 -44 6 -99q14 -92 47 -92q8 0 115 81q-33 51 -43 109q-2 16 -1 46t5 73q39 195 39 209l164 -2h3q146 0 279 164l2 8l-112 -37q-59 -14 -84 -19l-262 2l36 379q4 18 4.5 38.5t-4.5 41.5q-10 41 -24 41t-80 -53 q-63 -53 -76 -72q0 -2 2 -2v-2q51 -14 52 -74q0 -10 -1.5 -25.5l-3.5 -37.5l-22 -232l-256 5q-31 -4 -45 -21z" />
<glyph unicode="," horiz-adv-x="389" d="M16 -154q0 -14 7 -16q88 0 161.5 80t73.5 166q0 31 -18 30q-45 0 -109 -32q0 -70 -47 -152q-27 -47 -68 -76z" />
<glyph unicode="-" horiz-adv-x="614" d="M70 334q0 -16 6 -37l413 8q33 74 33 94q0 21 -43 21h-16l-357 -10q-6 0 -12 -9.5t-11 -22.5t-9 -25.5t-4 -18.5z" />
<glyph unicode="." horiz-adv-x="389" d="M98 -12q0 -6 6 -19q156 0 156 133q0 41 -16 41q-27 0 -56.5 -16t-58.5 -16q-6 -90 -31 -123z" />
<glyph unicode="/" horiz-adv-x="514" d="M-72 -41l76 2l588 1274l-80 -2z" />
<glyph unicode="0" horiz-adv-x="1130" d="M59 412q0 -168 99 -303q106 -150 270 -150q266 0 469 287q184 263 184 534q0 142 -84 293q63 25 82 57q16 25 25 101q-66 -16 -115 -17q-47 0 -102 17q-20 0 -62 -60q-37 -59 -37 -84q80 -59 115 -118q51 -88 51 -242q0 -236 -127 -459q-139 -240 -325 -239 q-127 0 -203 110q-66 96 -70 232v15q0 93 24 189q26 104 77 218q113 246 278 317q125 51 148 68q31 18 30 47q0 10 -22 10q-61 0 -217 -78q-488 -245 -488 -745z" />
<glyph unicode="1" horiz-adv-x="929" d="M76 815q324 0 682 275q-55 -244 -244 -680q-172 -397 -172 -410q0 -23 27 -23q14 0 147 72l211 512l54 159l46 132q109 332 109 350q0 37 -37 37q-29 0 -92 -45q-256 -172 -420 -203q-109 -16 -162 -18q-23 -16 -44 -34.5t-44 -35.5q-49 -43 -61 -88z" />
<glyph unicode="2" horiz-adv-x="1036" d="M-45 -6q0 -14 20 -14q-4 0 -3 0q0 2 147 18q86 8 148.5 12t103.5 4q203 0 409 -49l164 201l-24 24l-84 -79q-61 29 -312 28q-76 0 -155.5 -3t-167.5 -7q223 137 374 264q373 313 373 565q0 61 -23.5 110.5t-65.5 83.5t-98 51.5t-120 17.5q-199 -4 -373 -125 q-195 -135 -194 -322q0 -59 35.5 -106t93.5 -47q43 0 102 24q70 27 70 64q0 23 -39 30l-29 4l-28 5q-12 2 -26.5 14t-26 28.5t-18.5 34t-7 29.5q0 125 116 223q109 94 238 94q96 0 168 -55q74 -61 74 -158q0 -186 -211 -440q-178 -211 -324 -289q-215 -111 -256 -157 q-6 -4 -15 -14.5t-17 -22.5l-13 -24q-6 -11 -6 -17z" />
<glyph unicode="3" horiz-adv-x="1036" d="M-41 137q0 -90 84 -137q70 -37 168 -37q240 0 475 150q264 168 264 393q0 158 -243 158q-18 0 -56.5 -2.5t-56.5 -2.5q-63 0 -64 21q0 33 117 100l141 84q53 33 76 49q117 88 117 172q0 72 -113 109q-80 25 -170 25q-47 0 -109.5 -8.5t-139.5 -24.5q-53 -10 -108.5 -24.5 t-84.5 -57.5q-8 -10 -24 -38l-39 -71q-2 -8 1 -14t11 -4q88 39 153.5 62.5t112.5 33.5q82 16 221 17q119 0 119 -72q0 -66 -127 -152l-49 -32l-68 -43l-67 -43l-49 -33q-127 -86 -127 -150q0 -55 77 -55q43 0 127 6q41 4 73 6t54 2q76 0 95 -8q41 -16 41 -76 q0 -145 -170 -280q-158 -123 -281 -123q-57 0 -127 35q-78 41 -78 92q0 8 7 22l15 29l14 28q7 13 7 19q0 25 -26 31q-4 4 -52 6q-31 2 -56.5 -11.5t-44.5 -36t-29.5 -53t-10.5 -61.5z" />
<glyph unicode="4" horiz-adv-x="1085" d="M-35 344q0 -59 408 -59h102q55 0 114.5 2t88.5 2q31 0 29 0q0 -4 -54 -170q-42 -128 -42 -147q0 -3 1 -3q70 0 170 70l72 270q80 6 104 19q45 20 46 84q0 10 -12.5 10t-38 -7t-40.5 -7q-16 0 -30 6q109 217 108 278q0 4 -4 8q-23 0 -72 -20q-31 -10 -49 -17.5t-26 -9.5 l-103 -252q-47 -12 -133 -12q-182 0 -483 43q100 98 194.5 211t186.5 248q170 254 170 330q0 20 -17 20q-33 0 -188 -104q-2 -41 -61 -162q-137 -287 -379 -553q-62 -72 -62 -78z" />
<glyph unicode="5" horiz-adv-x="974" d="M-90 158q0 -100 108 -150q86 -37 199 -37q227 0 432 121q233 141 234 357q0 111 -82 186q-84 76 -185 76h-6q-109 -2 -211 -43q-33 -12 -80 -38l-112 -65q84 154 139 312l57 176q154 31 371 30q78 0 129 -63q72 66 72 123q0 59 -170 59q-72 0 -173.5 -6t-232.5 -20 q-68 -92 -116 -136q-23 -106 -58 -206.5t-80 -198.5l-50 -110l-36 -76q-4 -16 33 -17q20 0 80 49q35 29 65.5 51.5t57.5 36.5q92 49 205 49q88 0 149.5 -49t61.5 -135q0 -168 -136 -291q-133 -123 -303 -123q-70 0 -114 33q-53 35 -54 101q0 8 7.5 21t16.5 25.5t16.5 25 t7.5 20.5q0 37 -84 37q-59 0 -105 -33q-53 -37 -53 -92z" />
<glyph unicode="6" horiz-adv-x="1150" d="M33 313q0 -164 119 -264q111 -92 278 -92q215 0 422 166q215 178 215 391q0 117 -68.5 190.5t-185.5 73.5q-156 0 -295 -90q-129 -82 -215 -225q4 -18 16 -25q14 0 78 58q41 37 75 64.5t63 43.5q90 57 176 58q92 0 156 -55q67 -56 67 -151q0 -167 -129 -296 q-133 -129 -301 -129q-61 0 -114.5 21.5t-92.5 59.5t-61.5 90t-22.5 113q0 104 59 246q72 168 205 295q92 86 289 219q168 113 168 137q0 23 -66 23l-336 -231q-115 -78 -199.5 -153t-144.5 -146q-155 -187 -155 -392z" />
<glyph unicode="7" horiz-adv-x="999" d="M49 1083q0 -33 172 -51q102 -13 180 -13q19 0 37 1q111 2 225.5 14.5t235.5 38.5q-59 -45 -233 -250q-178 -207 -195 -260q-23 2 -56.5 7t-78.5 16q-90 23 -103 22q-14 0 -61 -53q-37 -40 -37 -62q0 -5 2 -10q55 -20 142 -26q45 -4 71.5 -5t36.5 -3q-233 -428 -233 -484 q0 -18 20 -18q27 14 59.5 27.5t73.5 25.5q51 12 58 41q53 217 188 414q104 10 176 20t117 19q66 78 65 96q0 8 -24 8q-23 0 -55.5 -4t-77.5 -12.5t-78 -12.5t-55 -4q47 90 119.5 190.5t170.5 213.5q174 199 174 205q0 31 -24 30q-70 0 -217.5 -30.5t-224.5 -30.5 q-94 0 -240 26q-74 14 -120 21.5t-64 7.5q-14 0 -80 -53.5t-66 -61.5z" />
<glyph unicode="8" horiz-adv-x="966" d="M-37 178q0 -106 86 -168q76 -49 191 -49q203 0 403 148q213 160 213 356q0 109 -213 250q51 33 100.5 74.5t100.5 93.5q131 133 131 215q0 47 -19 47q-20 0 -65 -33l-45 -32l-29 -21q-18 -96 -84 -201q-78 -121 -164 -121q-68 0 -174 74q-106 76 -106 139q0 80 71 133 q63 49 148 50q41 0 139 -27q68 -19 69 -24q0 -2 -14 -3q27 0 74 35q49 33 49 60q0 20 -73 36q-61 12 -88 13q-174 0 -318 -93q-162 -106 -162 -272q0 -123 232 -219q-453 -232 -453 -461zM131 205q0 121 119 233q70 68 221 160q258 -78 258 -202q0 -105 -110 -226 q-125 -137 -281 -137q-86 0 -143 41q-64 45 -64 131z" />
<glyph unicode="9" horiz-adv-x="1171" d="M84 651q0 -117 68.5 -190.5t185.5 -73.5q156 0 295 90q127 82 215 225q-4 18 -17 25q-14 0 -77 -57l-79 -66l-57 -43q-90 -57 -178 -57q-92 0 -156 54q-67 56 -67 157q0 164 129 289q131 131 301 131q61 0 114.5 -21.5t92.5 -59.5t61.5 -90.5t22.5 -113.5 q0 -104 -59 -246q-72 -168 -205 -295q-92 -86 -289 -219q-168 -113 -168 -135.5t66 -22.5l335 230q115 78 200 152.5t145 146.5q156 186 155 391q0 166 -119 264q-109 94 -278 94q-217 0 -422 -168q-215 -178 -215 -391z" />
<glyph unicode=":" horiz-adv-x="389" d="M-55 -12q0 -6 6 -19q154 0 153 133q0 41 -16 41q-27 0 -56.5 -16t-56.5 -16q-5 -90 -30 -123zM86 444q0 -6 6 -18q156 0 156 135q0 41 -17 41q-27 0 -56.5 -16.5t-57.5 -16.5q-6 -92 -31 -125z" />
<glyph unicode=";" horiz-adv-x="389" d="M-127 -154q0 -14 6 -16q88 0 160 80q74 80 74 166q0 31 -19 30q-43 0 -106 -32q0 -70 -47 -152q-27 -47 -68 -76zM86 444q0 -6 6 -18q156 0 156 135q0 41 -17 41q-27 0 -56.5 -16.5t-57.5 -16.5q-6 -92 -31 -125z" />
<glyph unicode="&#x3c;" horiz-adv-x="1036" d="M27 506q66 -20 111.5 -32.5t72.5 -18.5q88 -35 295 -129q94 -45 165.5 -75t121.5 -46l153 102l-624 246q180 88 351 184.5t337 204.5l-60 64l-144 -91l-163 -92q-360 -197 -592 -305q-22 -4 -24 -12z" />
<glyph unicode="=" horiz-adv-x="1105" d="M37 377l110 33l594 -11q135 8 160 31l164 133v8l-111 -36q-96 -18 -125 -19l-636 8q-29 -4 -43 -20zM63 688l113 33l592 -10h14q111 0 148 30l162 133l2 9l-113 -37q-84 -16 -125 -19l-635 9q-27 0 -45 -21z" />
<glyph unicode="&#x3e;" horiz-adv-x="1097" d="M90 289l62 -70l101 48l214 104l355 182q153 82 259 147q-176 55 -190 62l-323 134l-259 116l-153 -105l643 -268l-416 -210z" />
<glyph unicode="?" horiz-adv-x="808" d="M96 1055q0 -53 29 -101q35 -53 84 -53q37 0 90 25q59 29 59 63q0 23 -32 31l-25 4l-25 4q-12 2 -24 15.5t-22.5 28.5t-16.5 32.5t-6 30.5q0 113 96 168q78 47 199 47q43 0 83 -14.5t70.5 -40t48 -61.5t17.5 -79q0 -102 -82 -192q-23 -27 -65 -64l-101 -88 q-113 -94 -162 -156q-76 -94 -75 -184q0 -104 36 -104q49 0 70 88q27 106 51 131q59 57 104 96l70 61l114 105l81 74q90 109 90 233q0 109 -84 180q-76 63 -193 64q-188 0 -319 -76q-160 -96 -160 -268zM111 -12q0 -6 6 -19q156 0 155 133q0 41 -16 41q-27 0 -56.5 -16 t-58.5 -16q-5 -90 -30 -123z" />
<glyph unicode="@" horiz-adv-x="1208" d="M0 453q0 -195 131 -326q131 -129 328 -129q143 0 248 39q51 18 105 50t114 77q4 33 -11 55q-143 -143 -313 -143q-199 0 -332 102q-143 113 -143 307q0 27 3 62t11 76q20 127 125 243q96 104 223 166q104 47 183 47q188 0 301 -90q119 -94 119 -282q0 -27 -3.5 -54.5 l-7.5 -58.5q-16 -88 -96 -172q-86 -92 -170 -92q-4 47 62 254l57 177q25 73 45 118q0 41 -172 41q-199 0 -385 -142q-199 -150 -199 -340q0 -63 38 -102t97 -39q139 0 287 182q51 63 57 64q-35 -158 -34 -207q0 -63 20 -76q8 -6 86 -6q125 0 248 111q125 113 145 237 q4 25 6.5 52.5t2.5 56.5q0 193 -107 323q-115 141 -303 142q-160 0 -266 -58l-108 -76l-107 -73q-133 -98 -185 -178q-100 -152 -100 -338zM362 510q0 135 113 240q113 106 250 106q92 0 92 -39q-35 -68 -72.5 -128t-78.5 -114q-127 -158 -224 -157q-80 0 -80 92z" />
<glyph unicode="A" d="M30.5 32q55.5 -46 141.5 -46q242 4 530 237q111 92 271 279h305l-115 -410q-4 -20 -4 -31q0 -84 88 -84q59 0 119 43l120 94l85 66l-31 25q-143 -119 -197 -119q-23 0 -22 25q0 14 6 36l111 347q117 27 143 36q37 16 78 58q45 43 43 74l-7 17q-3 7 -7 11q-47 -31 -73 -46 t-30 -17q-45 -21 -102 -21h-10q0 37 186 627q4 16 4 33q0 150 -201 149q-86 0 -202 -33q-133 -145 -134 -155q0 -18 21 -19q-1 0 -1 1q0 3 114 38q125 39 196 39q51 0 51 -67q0 -18 -6 -37q-182 -563 -182 -576h-256l303 524q10 31 10 46q0 16 -12 16q-14 0 -133 -68 q-117 -295 -287 -508h-246q-223 0 -452 -114q-270 -137 -271 -336q0 -88 55.5 -134zM121 242q0 145 149 219q113 56 259 55h20l317 -8q-305 -418 -555 -418q-37 0 -70.5 10.5t-60 31t-43 48t-16.5 62.5z" />
<glyph unicode="B" horiz-adv-x="1347" d="M90 10q0 -16 23 -16q29 0 145 104q45 211 87 373t81 279q55 164 96 268t68 151q-16 18 -25 19q-25 0 -82 -49q-57 -53 -84 -64q-41 -51 -170 -497q-29 -96 -53 -191.5l-47 -193.5q-39 -165 -39 -183zM154 1128q23 0 129 48q59 27 117.5 47t115.5 37q178 47 354 47 q389 0 390 -199q0 -186 -209 -324q-160 -109 -340 -141l-10 -9q-7 -7 -21 -24q-23 -29 -48 -55l-54 -55q8 -25 24 -25q-2 0 -2 1q0 3 105 28q59 14 104 21t76 7q260 0 264 -170q0 -139 -113 -221q-100 -76 -245 -75q-236 0 -236 102q0 25 18 55q0 31 -53 31q-57 0 -97 -34 t-40 -91q0 -143 253 -143h7q219 2 408 104q221 125 221 330t-281 252q416 207 416 475q0 289 -541 289q-266 0 -569 -115l-78 -81q-35 -38 -61 -73q-5 -5 -6 -21q1 -8 2 -18z" />
<glyph unicode="C" horiz-adv-x="1280" d="M262 88q155 -127 374 -127h7q109 4 318 70q246 80 245 153q0 14 -24 25q-188 -102 -230 -117q-104 -41 -223 -41q-465 0 -465 465q0 289 174 531q190 266 469 266q80 0 178 -33q131 -39 132 -100v-17q-2 -6 -3 -22q0 -12 54 -13q18 0 35.5 12.5t31 31t21.5 41t8 42.5 q0 76 -125 115q-92 31 -184 31q-389 0 -676 -285q-287 -281 -287 -664q0 -223 170 -364z" />
<glyph unicode="D" horiz-adv-x="1452" d="M121 1102q0 -20 18 -21l117 49q326 137 559 138q530 0 531 -439q0 -336 -201 -579q-186 -223 -414 -223q-217 0 -258 145q-4 6 -10 6q-16 0 -31.5 -10t-28 -25.5t-19.5 -34t-7 -36.5q0 -125 209 -125q328 0 602 260q299 287 299 680q0 266 -211 391q-174 106 -457 106 q-51 0 -225 -24q-86 -12 -154.5 -24.5l-120.5 -22.5q-71 -14 -70 -21q0 -4 36 -4q-164 -182 -164 -186zM131 -2q0 -43 25 -43l129 80q47 199 84 338t65 225l101 281l90 233q0 18 -19 18q-14 0 -157 -92l-115 -328q-45 -134 -68 -210l-67 -247z" />
<glyph unicode="E" horiz-adv-x="1187" d="M33 211q0 -182 170 -250q111 -45 329 -45q164 0 353 86q223 104 223 250q0 47 -30.5 81t-76.5 34q-102 -4 -108 -86q61 -23 61 -68q0 -117 -157 -197q-129 -63 -258 -63q-113 0 -220 59q-121 71 -120 175q0 228 254 384q174 106 344 134q96 66 96 83q0 23 -21 25 q-207 35 -272 57q-131 45 -131 138q0 115 141 204q125 82 248 82q63 0 119 -20q80 -29 80 -76q0 -37 -43 -82q27 -31 69 -31q51 0 92.5 35t41.5 84q0 78 -95 117q-74 29 -159 29q-197 -2 -392 -99q-231 -121 -231 -299q0 -106 111 -170q49 -27 204 -73q-193 -49 -370 -162 q-252 -158 -252 -336z" />
<glyph unicode="F" horiz-adv-x="1628" d="M-2 147q0 -137 119 -200q94 -51 243 -51q197 0 392 100q240 121 372 348q39 2 115 27.5t193 72.5q12 -12 12 -41q0 -41 -29 -86l-26 -26q-23 -23 -23 -27q0 -18 16 -18q119 0 179 96q39 68 61 207q-31 -16 -87 -35.5t-142 -42.5q-166 -43 -234 -43q78 158 135 371 q49 186 49 282q0 37 -10 37q-20 0 -141 -78q-6 -137 -49 -315q-45 -199 -105 -297q-29 0 -94 7t-170 22l-78 -51q-45 -27 -45 -45.5t146 -30.5q51 -4 99 -6t95 -2q-125 -172 -217 -248q-166 -135 -371 -135q-113 0 -188 49q-90 59 -90 162q0 121 108 307q78 131 115 168 q0 18 -14 18q-6 0 -55 -22q-47 -23 -60 -25q-92 -23 -162 -190q-59 -150 -59 -259zM551 1010l188 75q72 29 101 39q258 82 559 82q90 0 180 -30q20 0 51 41q33 41 33 65q-141 45 -320 45q-205 0 -464 -74q-225 -66 -258 -98q0 -6 -35 -70q-35 -59 -35 -75z" />
<glyph unicode="G" horiz-adv-x="1413" d="M92 414q0 -141 98.5 -248t237.5 -107q213 0 420 140q182 123 313 321q-18 -289 -196 -528q-199 -272 -473 -273q-61 0 -123 23q-74 31 -74 86q0 10 11 26.5t11 34.5q0 25 -36 25q-133 0 -134 -113q0 -78 97 -118q66 -27 161 -27q190 0 402 137q242 156 385 397 q147 254 147 535q0 14 -18 14q-31 0 -131 -84q-23 -20 -94 -135q-72 -119 -109 -160q-61 -68 -178 -131q-145 -82 -248 -82q-154 0 -244 93.5t-90 246.5q0 285 240 566q248 291 526 290q96 0 183 -28q115 -41 114 -123q0 -23 -12 -43q-4 -16 0 -25q27 -14 57 -14q51 0 83 37 t32 90q0 86 -117 133q-92 35 -192 35q-399 0 -721 -293q-328 -301 -328 -698z" />
<glyph unicode="H" horiz-adv-x="1902" d="M-16 106q0 -156 264 -155q119 0 270 78q66 35 124 78t106 94q27 27 53 62.5t55 82.5l27 46l39 67l508 -8q-57 -244 -58 -381q0 -121 98 -121q41 0 86 28l84 66l86 66q0 25 -24 24q-102 -100 -160 -100q-23 0 -36 30.5t-13 55.5q0 109 72 323q135 10 188 33q61 27 156 133 l-15 19q-61 -68 -135 -84l-168 -17q39 166 140 416q47 119 94 218.5t92 178.5q-39 0 -84 -24l-52 -26l-28 -13l-98 -218q-37 -83 -51 -112q-90 -209 -142 -409q-240 10 -361.5 16t-129.5 6q31 70 62.5 165t64.5 220q74 270 73 393q0 29 -6 35l-98 -80l-92 -78 q-53 -43 -117 -43q-57 0 -61 48q0 6 47 147l-142 -43q-53 -23 -53 -119q0 -121 99 -121q82 0 163 45l50 32l49 32q-4 -92 -56 -322q-59 -248 -98 -317q-272 -2 -530 -96q-342 -128 -342 -351zM104 193q0 113 132 182q102 55 229 65l222 16l120 7q-78 -176 -191 -295 q-147 -158 -301 -158q-88 0 -149.5 48.5t-61.5 134.5z" />
<glyph unicode="I" horiz-adv-x="1327" d="M45 270q0 -129 109 -209q98 -70 224 -69h7q362 2 606 213q133 115 219 340q39 100 61.5 199.5t26.5 199.5q10 74 15.5 188.5t5.5 272.5q0 18 -19 31q-203 -178 -272 -179q-35 0 -35 41q0 23 25 70q25 45 24 55q0 12 -18 13q-4 0 -154 -60q-25 -8 -43 -76q-16 -59 -16 -92 q0 -72 50 -72q3 0 5 1q61 2 160 57q39 20 68.5 39.5t52.5 40.5q20 -6 20 -68v-178q0 -147 -49 -340q-49 -201 -123 -317q-211 -340 -573 -344h-9q-96 0 -163 41q-82 49 -82 151q0 147 162 389q6 8 27.5 25.5t58.5 44.5q59 43 59 76q0 14 -16 14q-10 0 -234 -98 q-53 -59 -110 -168q-70 -134 -70 -232z" />
<glyph unicode="J" horiz-adv-x="1294" d="M8 -12q0 -244 217 -244q590 0 883 571q227 444 227 1096q0 90 -80 90q-29 0 -200 -69q-172 -66 -285 -70q-8 0 -16 -1q-67 0 -113 32l-40 30l-40 29q-147 -92 -153 -98q20 -59 122 -86q80 -23 156 -23q90 0 240 78q147 80 182 80q70 0 70 -105v-23q0 -498 -170 -910 q-227 -563 -666 -566h-3q-183 0 -183 219q0 176 135 383q106 164 217 240q2 2 2 8t-6 10q-82 -31 -150.5 -60.5l-128.5 -57.5q-217 -256 -217 -553z" />
<glyph unicode="K" horiz-adv-x="1837" d="M31 170q-1 -9 -1 -18q0 -70 58 -113q57 -43 141 -43q195 0 400 145q170 125 297 314q53 82 104.5 205.5t99.5 291.5q88 301 89 439q0 31 -19 30q-2 0 -121 -92q-121 -92 -176 -92q-39 0 -39 41q0 63 74 154l-168 -45q-18 0 -45 -74q-27 -68 -27 -99q0 -27 17.5 -53 t44.5 -26q92 0 272 114q-27 -446 -211 -778q-231 -418 -493 -422q-66 0 -115 35t-53 98q0 5 -1 11q0 87 97 213q66 84 229 241q-8 8 -28 8q-29 0 -219 -69q-63 -72 -107.5 -137.5t-67.5 -129.5q-10 -29 -19 -65.5t-13 -83.5zM1032 541q0 -63 70 -140l272 -307 q100 -113 182 -112q47 0 144 67q76 57 123 111q0 12 -27 20q-90 -92 -149 -92q-78 0 -129 62l-263 296q-82 90 -81 158q0 37 61 72l278 160q215 125 328 331q76 137 76 224q0 12 -6 18q-147 -57 -170 -80q-39 -168 -103 -272q-70 -119 -202 -205l-351 -231q-53 -35 -53 -80z " />
<glyph unicode="L" horiz-adv-x="1130" d="M-57 -8q0 -18 12 -19l166 29q168 29 266 29q90 0 157.5 -3t114.5 -12l242 -49l55 66q20 25 29 33q72 90 72 106l-23 18l-86 -100q-178 70 -409 70q-258 0 -473 -97q63 86 145 271q29 61 45 104l25 66q160 494 223 600q125 211 358 211q68 0 112 -46t44 -114q6 0 12 2h14 q10 0 52 53q39 51 39 64q0 125 -151 125h-5q-231 -4 -436 -162q-182 -141 -283 -350q-18 -37 -42.5 -112t-57.5 -187q-35 -123 -58.5 -198t-35.5 -103z" />
<glyph unicode="M" horiz-adv-x="2228" d="M-6 147q0 -104 42 -144t146 -40q205 0 432 209q193 180 338 444q160 289 170 529l-141 -76q-2 -174 -104 -420q-94 -231 -236 -403q-186 -229 -379 -230q-27 0 -53.5 11.5t-48 31t-34.5 45t-13 52.5q0 104 123 268q51 66 94 113t82 73q12 8 12 35l-205 -67 q-123 -160 -160 -222q-65 -115 -65 -209zM817 1192q0 -2 82 37q94 49 156 49q113 0 162 -154q33 -98 32 -245q0 -100 -8 -214t-24 -245q-2 -20 -19 -133l-45 -322l129 72q39 119 80 184l226 349q89 134 130 188q170 221 434 473q-100 -180 -225 -541q-147 -428 -147 -635 q0 -41 31.5 -69.5t72.5 -28.5q51 0 129 47l60 44l122 93l-24 21q-145 -119 -182 -119q-74 0 -74 92q0 168 147 574q78 211 153 369.5t150 264.5q3 3 3 8q0 9 -9 23l-137 -35q-119 -98 -248 -236t-272 -321q-47 -59 -100 -135l-115 -170l-69 -107l-101 -161q-2 16 5 92 t24 217q16 150 24 270.5t8 215.5q0 135 -73 256q-82 135 -206 135h-7q-35 -2 -65 -5.5t-58 -9.5q-152 -147 -152 -188z" />
<glyph unicode="N" horiz-adv-x="1873" d="M-6 135q0 -88 56 -133t149 -45q193 0 350 137q100 88 264 324q100 143 166 364q55 184 55 303q0 16 -4 37q-45 -33 -73.5 -51l-43.5 -27q-49 -373 -186 -647q-39 -78 -87 -143.5t-105 -118.5q-139 -129 -287 -129q-55 0 -94 47t-39 103q0 186 319 467q0 18 -18 18 l-180 -55q-39 -31 -78 -79t-78 -114q-86 -152 -86 -258zM692 1233q0 -14 13 -16q113 63 208 63q88 0 166 -55q70 -53 105 -142q49 -125 89 -260t68 -282l74 -385q27 -143 33 -195q29 0 84 37q174 270 356 758q51 133 84 336l43 286q-10 18 -26 19q-33 0 -66 -43 q-41 -53 -61 -62q0 -14 1 -34.5t3 -49t3 -49t1 -35.5q-2 -72 -8.5 -137t-20.5 -129q-16 -68 -74 -264q-16 -53 -39.5 -112.5t-56.5 -129.5q-8 -20 -117 -235l-91 457q-38 183 -64 280q-43 162 -117 320q-104 223 -274 223q-53 0 -166 -6z" />
<glyph unicode="O" horiz-adv-x="1527" d="M250 106q158 -152 401 -151q236 0 443 156q182 139 305 366q104 193 104 318q0 115 -45 206q-59 123 -155 123q-47 0 -84 -37.5t-37 -85.5q11 2 21 2q69 0 112 -69q41 -66 41 -154v-6q0 -271 -187 -508q-201 -250 -471 -252h-4q-218 0 -344 187q-100 150 -100 331 q0 387 221 607q193 190 473 190q96 0 248 -82q135 39 158 62q-118 84 -287 84h-8q-367 -4 -660 -263q-303 -271 -303 -626q0 -244 158 -398z" />
<glyph unicode="P" horiz-adv-x="1607" d="M6 152q0 -86 55.5 -139.5t143.5 -53.5q256 4 459 207q178 182 266 444q66 197 65 361q0 70 -3 112.5t-7 63.5q-76 -47 -125 -103l-12 -233q-12 -248 -158 -506q-170 -295 -399 -299q-33 0 -60.5 14.5t-47 39t-31 55t-11.5 63.5q0 135 164 311q57 59 58 68q0 16 -17 16 q-6 0 -63 -24l-70 -29l-61 -22q-146 -219 -146 -346zM450 986q0 -11 5 -21q113 106 260 186q215 117 413 117q205 0 312.5 -121t107.5 -330q0 -184 -88 -328q-100 -168 -274 -167q-123 0 -123 63q0 10 12 27.5t12 29.5q0 27 -26 27q-51 0 -93 -38t-42 -87q0 -109 149 -108 q250 0 428 225q168 211 168 467q0 205 -160 338q-150 125 -360 125q-254 0 -600 -215q-39 -61 -65 -108q-36 -66 -36 -82z" />
<glyph unicode="Q" horiz-adv-x="1523" d="M92 506q0 -217 139 -363q141 -145 359 -145q-4 -37 -105 -100l-159 -107q-29 -35 -25 -70q182 53 397 54q72 0 107 -11q39 -16 104 -67q12 0 21.5 10t17.5 24.5t12.5 31t4.5 28.5q-4 102 -148 103q-141 0 -325 -48l104 90t78 60q227 2 430 156q180 137 297 358 q100 193 100 364q0 115 -39 187q-51 94 -147 94q-23 0 -46.5 -9t-44 -25.5t-32.5 -37t-12 -43.5q0 -18 14 -16q10 2 25 2q70 0 108 -70q35 -63 35 -133q0 -203 -115 -401q-76 -133 -209 -248q-145 -126 -263 -126q-11 0 -21 1q113 129 166 184q82 94 94 127q4 12 -8 25 q-16 0 -68 -27q-61 -33 -78 -34q-25 -6 -69 -88q-59 -109 -136 -181q-184 0 -307 185q-109 164 -108 358q0 248 182 489q203 266 473 267q102 0 162 -19q55 -14 141 -71l158 75q-121 90 -289 91q-383 0 -676 -269q-299 -274 -299 -655z" />
<glyph unicode="R" horiz-adv-x="1390" d="M104 12q0 -29 12.5 -28.5t45.5 22.5l48 35l38 25q23 92 49 183l55 189q47 158 172 441q113 252 113 286q0 12 -8 13q-53 0 -129 -56l-150 -307q-29 -59 -60.5 -147t-66.5 -205q-119 -402 -119 -451zM162 1190q0 -16 14 -16q-6 0 98 32q299 90 662 90q154 0 266 -32 q182 -49 182 -160q0 -106 -141 -217q-109 -84 -235 -135l-416 -164q-111 -43 -111 -111q0 -72 99 -166q51 -51 204 -164q229 -168 334 -167q39 0 74 30l102 105l72 73l-23 29l-96 -96q-25 -25 -55 -25q-70 0 -182 68q-18 10 -60 39l-104 73q-205 143 -205 220q0 47 104 94 l447 192q119 51 215 144q113 111 113 219q0 159 -226 229q-152 47 -348 47q-121 0 -375 -30q-264 -35 -299 -58l-34 -47q-18 -25 -41 -47q-35 -41 -35 -49z" />
<glyph unicode="S" horiz-adv-x="1193" d="M-6 156q0 -96 127 -140q92 -29 209 -28q51 0 113.5 4t138.5 12q92 10 153.5 25.5t89.5 31.5q127 78 222 187q117 135 116 256q0 212 -344 212q-22 0 -45 -1l-325 -15h-6q-53 0 -113 39q-61 39 -62 97q0 209 197 338q166 111 391 114h11q188 0 259 -71q4 -4 11 -33 q10 -29 22 -29q20 0 37.5 12.5t31 31t20.5 41t7 44.5q0 127 -266 127q-35 0 -76 -4t-92 -12q-104 -18 -164 -41q-162 -70 -319 -230q-176 -182 -176 -340q0 -100 65 -162q63 -60 164 -61h6l459 8q39 0 75 -10t62.5 -30.5t43 -51.5t16.5 -67q0 -160 -193 -248 q-147 -66 -332 -70h-14q-94 0 -203 25q-162 33 -166 102v51q-2 33 -26 33q-45 0 -84 -51q-41 -53 -41 -96z" />
<glyph unicode="T" horiz-adv-x="1288" d="M-8 197q2 -221 325 -222q121 0 304 86q180 86 266 181q336 373 336 862q0 33 -19 33q-10 0 -67.5 -41t-71.5 -47q-18 -375 -178 -662q-199 -352 -539 -358q-7 0 -14 -1q-75 0 -129 42q-68 45 -68 129q0 74 72 204q16 31 121 125q80 70 80 134q0 14 -27 14q-10 0 -102 -37 q-47 -16 -76 -29l-39 -16q-174 -247 -174 -397zM350 1108q0 -18 21 -18q-8 0 145 57q162 59 254 76q102 16 181 24t136 8q35 0 110 -6l192 -16q59 84 59 100q0 39 -326 39q-141 0 -327 -24q-221 -27 -308 -72q-10 -14 -33 -40l-59 -67q-45 -47 -45 -61z" />
<glyph unicode="U" horiz-adv-x="1419" d="M25 162q0 -74 34 -133q39 -68 109 -68q39 0 147 43q123 51 232 131q246 182 475 479l213 283q-250 -682 -250 -848q0 -92 55 -92q117 14 318 184q0 18 -25 19q-139 -86 -170 -86q-35 0 -35 49q0 74 146 504q57 172 123 331q106 260 166 365q12 20 12 41q0 18 -19 18 q-14 0 -149 -63q-92 -242 -291 -520q-84 -117 -169 -219.5t-177 -194.5q-74 -74 -235 -186q-188 -133 -250 -133q-100 0 -101 129q0 53 60 313q35 150 141 354q115 223 215 311l85 17l99 18q31 6 94.5 69.5t63.5 94.5q0 18 -24 19q-74 0 -281 -115q-45 6 -176 57 q-135 53 -131 53q-16 0 -68 -30q-47 -27 -65 -45q51 -59 159 -92q27 -8 68 -18.5t100 -20.5q-72 -61 -142.5 -149.5t-141.5 -205.5q-215 -348 -215 -663z" />
<glyph unicode="V" horiz-adv-x="1779" d="M90 737q0 -29 9.5 -56.5t26.5 -50t39.5 -36.5t49.5 -14q49 0 94 26q53 35 53 78q0 18 -38 18q-29 0 -51.5 28t-22.5 58q0 162 149 342q156 190 314 191q45 0 86 -18q49 -25 49 -66q0 -39 -60 -186l-276 -678q-35 -92 -35 -185q4 -127 125 -184q92 -43 234 -43 q152 0 370 127q193 113 316 248q125 137 217 379q92 234 92 416v16q-4 231 -186 231q-63 0 -111.5 -40t-48.5 -101q0 -6 55 -6q82 0 123 -80q35 -66 35 -160q0 -353 -232 -637q-250 -307 -596 -309h-9q-81 0 -148 35q-90 47 -90 123q0 66 47 184l284 703q41 104 41 159 q0 72 -53 113q-47 35 -121 35q-213 -4 -461 -199q-270 -215 -270 -461z" />
<glyph unicode="W" horiz-adv-x="2217" d="M92 655q0 -57 33 -108q37 -61 90 -62q49 0 102 33q63 33 64 80q0 14 -33 12q-23 -2 -33 -2q-8 0 -4 0q-29 0 -53 49q-20 41 -20 74q0 186 155 379q166 203 344 203q144 0 144 -163v-13q-10 -236 -236 -697q-57 -117 -122.5 -236.5t-141.5 -244.5q0 -25 12 -25q33 0 80 31 q59 35 78 43l141 189l111 139q43 51 112 119l108 105l77 77q125 121 172 139q-8 -53 -66 -160q-72 -135 -92 -190q-47 -125 -47 -242q0 -125 73.5 -194.5t198.5 -69.5q315 2 611 395q111 147 186 328q90 210 90 356q0 127 -39 224q-51 125 -159 125q-63 0 -109 -37 q-53 -41 -53 -99q0 -18 32 -10q37 10 46 10q74 0 120 -108q39 -84 39 -172v-15q0 -244 -129 -481q-133 -246 -342 -381q-121 -61 -209 -61q-47 0 -87 16.5t-70.5 46t-48 68.5t-17.5 86q0 248 363 727q10 10 -19 10q-86 0 -166 -35q-8 -8 -36 -30l-78 -62l-115 -91 q-47 -38 -74 -64q-233 -225 -338 -338q-4 0 -4 6q0 20 60 143q227 457 227 710q0 91 -50 139t-136 48q-256 0 -498 -233q-244 -234 -244 -486z" />
<glyph unicode="X" horiz-adv-x="1765" d="M-16 143q0 -80 55 -130t135 -50q207 0 414 166q156 127 264 299q115 18 162 37q-8 -47 -11.5 -84t-3.5 -64q0 -164 80 -258q82 -98 244 -98q78 0 237.5 59.5t204.5 116.5q0 14 -20 23q-127 -115 -338 -115q-262 0 -266 348l18 131q223 57 469 285q266 242 266 432 q0 154 -159 154q-252 0 -475 -322q-94 -137 -153.5 -275.5t-82.5 -279.5q-59 -18 -127 -18q0 23 39 121q51 135 74 221q39 147 39 288q0 109 -48 181q-51 82 -157 82q-145 0 -215 -156l18 -18q63 70 129 73h7q61 0 96 -71q29 -61 28 -129q0 -172 -59 -373l-80 -219 q-272 0 -453 172q-53 -41 -112 -68q-4 -2 -26.5 -9t-63.5 -22q-16 -23 -36 -66.5t-42 -109.5q-51 -154 -51 -254zM111 139q0 82 43 215q43 139 94 197q92 -59 233 -96q135 -37 250 -37q-20 -45 -63 -102.5t-113 -129.5q-176 -182 -313 -182q-131 0 -131 135zM1169 565 q0 63 70 242q35 92 74 172t82 149q135 215 254 215q104 0 104 -102q0 -182 -219 -414q-195 -203 -365 -262z" />
<glyph unicode="Y" horiz-adv-x="1523" d="M35 211q0 -92 55 -141.5t148 -49.5q362 0 800 525q47 55 95.5 124.5t97.5 155.5q4 8 46 82l120 217v-19q0 -109 -21 -222q-23 -123 -67 -252q-33 -92 -88.5 -214t-135.5 -278q-45 -86 -110.5 -164.5t-157.5 -150.5q-199 -162 -373 -162q-61 0 -135 35q-84 41 -84 100 q0 12 9.5 32.5t9.5 27.5q0 25 -35 24q-47 0 -92 -33q-47 -35 -47 -77q0 -94 110 -127q57 -18 187 -19q199 0 374 96q137 76 306 244q68 68 176 228q72 111 124 208t82 187q72 213 117 518q8 55 16.5 123.5t16.5 152.5q-80 -35 -154 -73q-109 -362 -442 -777 q-117 -145 -289 -278q-213 -164 -352 -164q-92 0 -129 49q-33 41 -33 140q0 178 125 434q143 299 371 483q104 8 164 37q150 94 149 131q0 20 -49 20q-109 0 -221 -94q-109 0 -313 90l-130 -86q2 -37 308 -102q-158 -104 -332 -367q-217 -327 -217 -614z" />
<glyph unicode="Z" horiz-adv-x="1370" d="M-76 -27q0 -18 13 -18q113 43 319 68q92 10 173 16t157 6q55 0 125.5 -5t158.5 -15q213 -25 318 -58q78 88 122 142.5t56 74.5q0 20 -23 21q-6 0 -88 -107q-311 72 -512 72q-121 0 -337 -43q-219 -43 -314 -43l647 485q70 2 203 19q168 18 184 33q66 61 66 88 q0 12 -14 12q2 0 1 0q0 -2 -120 -19q-135 -18 -203 -18q578 549 578 653q0 59 -99 60q-80 0 -268 -39t-295 -39q-178 0 -444 70q-154 -98 -154 -113q119 -63 449 -64q131 0 571 111q37 0 37 -37q0 -55 -195 -280q-78 -92 -157 -175l-160 -157q-227 12 -301 51 q-27 -12 -78 -63q-43 -41 -43 -55q0 -3 2 -5q43 -20 156 -29q45 -4 77.5 -6t55.5 -4q0 -8 -223 -192l-214 -172q-91 -72 -155 -115q-72 -107 -72 -111z" />
<glyph unicode="[" horiz-adv-x="548" d="M-158 -461l299 -12v41l-143 12l516 1747l162 6v41l-301 -18z" />
<glyph unicode="\" horiz-adv-x="514" d="M49 1235l404 -1274l77 -2l-401 1274z" />
<glyph unicode="]" horiz-adv-x="548" d="M-242 -432v-41l299 12l537 1825l-301 10v-37l145 -12l-522 -1751z" />
<glyph unicode="^" horiz-adv-x="851" d="M141 635l47 -68q272 412 320 498q63 -168 119.5 -292t109.5 -202l88 140q-86 117 -149 260q-39 84 -141 352q-345 -614 -394 -688z" />
<glyph unicode="_" horiz-adv-x="923" d="M0 -143v-123h924v123h-924z" />
<glyph unicode="`" horiz-adv-x="681" d="M145 956q0 -41 39 -67l211 -141h82l-180 231q-33 45 -82 45q-70 0 -70 -68z" />
<glyph unicode="a" horiz-adv-x="802" d="M67.5 20.5q38.5 -38.5 98.5 -38.5q131 0 289 182q51 63 59 63q-16 -76 -16 -147q0 -106 86 -107q20 0 110 54q80 49 80 63q0 23 -20 23q-16 0 -49 -20.5t-43 -20.5q-31 0 -31 34q0 86 164 463q-4 41 -174 41q-203 0 -390 -143q-203 -151 -202 -341q0 -67 38.5 -105.5z M170 195q0 135 114.5 243.5t252.5 108.5q92 0 92 -41q-207 -403 -377 -404q-82 1 -82 93z" />
<glyph unicode="b" horiz-adv-x="782" d="M18 76q0 -94 179 -94q176 0 358 159q182 164 182 338q0 53 -39 92t-92 39q-98 0 -219 -96l-147 -143l89 267q32 95 38 118q57 190 88.5 331.5t36.5 239.5q4 29 -15 29q-14 0 -96 -43q-98 -51 -156 -68q0 -33 17 -33q8 0 53 17q43 18 51 18q-23 -215 -104 -481 q-12 -41 -49 -144l-97 -272q-78 -214 -78 -274zM154 112q0 94 127 236q129 145 223 146q98 -10 98 -101q0 -127 -110 -246q-106 -119 -234 -118q-104 0 -104 83z" />
<glyph unicode="c" horiz-adv-x="638" d="M50.5 112q19.5 -40 52 -69t74.5 -45t89 -16q66 0 183 51q131 56 131 109v3q-4 25 -25 13l-63 -47q-25 -18 -35 -23q-33 -20 -80 -20q-92 0 -154.5 57t-62.5 149q0 117 59.5 189t171.5 72q18 0 60 -29q39 -27 45 -27q18 0 73 31q59 31 56 47q0 25 -72 41q-53 12 -90 12 q-168 0 -301 -125q-131 -123 -131 -281q0 -52 19.5 -92z" />
<glyph unicode="d" horiz-adv-x="862" d="M41 106q0 -57 42 -90.5t99 -33.5q80 0 164 65q18 16 65 63l119 123q-2 -14 -9 -39.5t-17 -66.5q-20 -74 -21 -90q0 -59 62 -60q51 0 282 127q0 33 -20 33q-4 0 -80 -43q-78 -41 -84 -41q-23 0 -22 15l241 712q31 90 74 297q41 199 41 226q0 53 -12 53q-8 0 -95 -41 q-47 -23 -84.5 -39t-66.5 -25q0 -33 16 -32q6 0 49 16l56 18q0 -106 -62 -311l-59 -192l-49 -152q-59 12 -95 12q-174 0 -354 -166t-180 -338zM174 188q0 135 111 250q111 117 243 117q111 0 111 -41q0 -16 -61 -117q-182 -307 -322 -307q-82 0 -82 98z" />
<glyph unicode="e" horiz-adv-x="643" d="M41 176q0 -86 59.5 -140t145.5 -54q150 0 289 108q33 27 32 41q0 16 -20 16q-10 0 -37 -16q-45 -31 -57 -35q-53 -31 -115 -30q-31 0 -61.5 13t-53 34.5t-37 51.5t-14.5 60q70 16 132.5 40t121.5 57q166 88 166 190q0 98 -135 98q-133 0 -267 -121q-149 -135 -149 -313z M186 283q0 76 60 172q63 104 137 104q62 0 62 -57q0 -35 -35 -86t-74 -72q-109 -61 -150 -61z" />
<glyph unicode="f" horiz-adv-x="632" d="M10 -305q0 -98 51 -98q106 0 263 186q92 113 129 184q51 96 51 215q0 106 -62 199q-25 37 -100 113q381 0 381 96q0 12 -14 20q-90 -31 -349 -30q29 113 61 211t64 184q92 238 146 237q14 0 35.5 -14t27.5 -14q18 0 35 67q10 57 10 86q0 18 -24 19q-88 0 -219 -193 q-156 -223 -271 -579q-33 10 -55 19l-33 13q-102 -43 -102 -69q0 -8 71 -37l53 -20q19 -7 29 -11q-18 -47 -44.5 -146.5t-61.5 -248.5q-72 -309 -72 -389zM145 -238q0 39 15.5 120t44 210t53.5 207q25 79 41 107q43 -39 82 -107q41 -78 41 -133q0 -165 -117 -334 q-86 -125 -135 -125q-25 0 -25 55z" />
<glyph unicode="g" horiz-adv-x="798" d="M39 -313q0 -86 111 -86q82 0 141 37q106 68 203 202l88 142q68 18 112 24q4 8 4 17q0 4 -4 20l-49 -7q-20 -3 -37 -7q0 -8 54 135q63 166 106 428q-66 18 -92 18q-215 0 -416 -139q-219 -154 -219 -362q0 -53 31.5 -90t85.5 -37q74 0 172 55q135 78 225 227 q0 -63 -72 -262q-444 -149 -444 -315zM174 181q0 134 110.5 238.5t250.5 108.5q92 0 92 -18q-35 -137 -64 -168q-182 -207 -188 -211q-47 -45 -107 -45q-39 0 -66.5 25.5t-27.5 69.5zM178 -289q0 68 115 158q106 82 168 82l-62 -133q-72 -154 -163 -154q-58 0 -58 47z" />
<glyph unicode="h" horiz-adv-x="786" d="M-25 0q8 -12 23 -18q84 39 115 49q39 66 89 137.5t111 148.5q170 219 244 220q37 0 37 -62q0 -78 -66 -246q-33 -84 -62.5 -139t-55.5 -84l14 -24q33 0 125 30l102 36q37 13 45 15q0 25 -18 25q-10 0 -36 -9t-38 -9t-12 12q0 -2 1 -2q6 0 60 143q63 158 64 246 q0 141 -80 141q-117 0 -246 -145l-110 -126l-78 -89q135 381 209.5 654.5t95.5 445.5q-10 18 -21 18q-16 0 -225 -104q0 -27 6 -27l51 18l41 15q0 -96 -41 -289q-20 -94 -64 -231.5t-110 -321.5q-59 -166 -101 -272.5t-69 -155.5z" />
<glyph unicode="i" horiz-adv-x="380" d="M51 66q0 -29 20.5 -56.5t49.5 -27.5q43 0 88 32l127 99q0 23 -21 22q-84 -68 -98 -67q-37 0 -37 43q0 45 78 247q70 184 102 234q0 18 -16 18q-8 0 -113 -43q-106 -45 -147 -53q0 -33 16 -33l82 21q-131 -332 -131 -436zM217 786q0 -6 6 -18q86 0 139 37q63 43 64 125 q0 31 -18 31q-12 0 -27.5 -5.5l-32.5 -11.5l-31 -11q-14 -5 -20 -5q-2 -63 -16 -86q-17 -29 -64 -56z" />
<glyph unicode="j" horiz-adv-x="360" d="M-127 -369q0 -12 12 -12q172 133 275 393q45 117 88 287q4 20 22.5 93t46.5 200q-2 12 -20 18q-53 -31 -154 -61q-88 -25 -90 -39q10 -23 17 -23l106 33l-102 -397q-51 -193 -129 -352l-46 -92q-18 -34 -26 -48zM193 795q0 -6 6 -19q86 0 139 37q63 43 63 125 q0 31 -18 31q-12 0 -27.5 -5.5l-31.5 -11.5l-31 -11q-14 -5 -21 -5q-2 -63 -16 -86q-16 -28 -63 -55z" />
<glyph unicode="k" horiz-adv-x="868" d="M-33 4q0 -16 19 -16q16 0 65 24.5t65.5 41t53.5 116.5q41 102 70 135l71 78l43 47q96 102 213 105q41 0 74 -25t33 -66q0 -70 -88 -125q-78 -49 -154 -49l-35 56h-2q-19 0 -121 -41l68 -106l68 -105q76 -92 182 -92q43 0 104 28q23 16 47 31l48 29q0 4 -17 14 q-96 -49 -121 -49q-43 0 -121 90q-70 82 -77 111q109 0 211 43q150 63 149 190q0 63 -51 102t-117 39q-180 -4 -397 -243q-2 4 108 362q53 174 89 326.5t57 287.5q-10 25 -17 25l-74.5 -36.5t-86.5 -35.5q-66 -25 -72 -34q0 -23 12 -19q47 14 71.5 20.5t29.5 8.5 q-41 -315 -224 -817l-81 -214z" />
<glyph unicode="l" horiz-adv-x="403" d="M14 35q0 -51 49 -53q2 0 5 -1q32 0 133 50q98 47 137 73q0 25 -12 31l-45 -27l-33 -20q-61 -37 -80 -37q-20 0 -21 21q0 12 62 176l60 168l42 119q197 629 197 765q0 55 -6 56q-8 0 -101 -41q-51 -23 -91 -38l-68 -26q0 -33 16 -32q10 0 57 20l45 16q16 6 21 9 q0 -43 -90 -379q-41 -154 -71 -253.5t-48 -148.5l-135 -366q-23 -64 -23 -82z" />
<glyph unicode="m" horiz-adv-x="1105" d="M-29 0l25 -18l129 67q31 66 69.5 136.5t86.5 142.5q135 209 208 209q37 0 37 -62q0 -154 -178 -475q-4 -16 6 -18l148 49q29 63 70.5 134t95.5 152q143 217 219 218q43 0 43 -64q0 -61 -64 -215l-43 -103q-16 -40 -26 -57q-55 -96 -56 -100q8 -14 19 -14q201 78 266 86 q0 8 -8 32q-41 -10 -67.5 -15t-41.5 -7q23 41 47.5 93t47.5 116q51 141 51 219q0 39 -23.5 71.5t-62.5 32.5q-100 0 -199 -110l-94 -114q-41 -48 -68 -83q4 8 25 88q16 55 16 90q0 129 -86 129q-137 0 -340 -295l62 283q-4 10 -19 10q-45 0 -116 -41q-43 -27 -72 -41 t-43 -18q0 -8 10 -25q4 2 29.5 9.5t72.5 23.5q0 -51 -73 -262q-70 -207 -103 -254z" />
<glyph unicode="n" horiz-adv-x="749" d="M-4 -18l84 38l55 25q88 158 211 313q139 176 191 177q43 0 43 -64q0 -49 -52 -184q-53 -145 -135 -293l17 -7l10 -5q47 27 113.5 47t158.5 34q-6 35 -12 35q-37 -8 -64.5 -13t-44.5 -9l41 104l31 78q59 166 59 266q0 86 -72 86h-3q-137 -2 -275 -180l-135 -184 q0 45 37 166q20 59 31.5 107t15.5 83q0 12 -25 12q-55 -49 -227 -102q0 -14 14 -31q35 14 58.5 22.5t38.5 12.5q-12 -96 -62 -229l-69 -185q-33 -89 -33 -120z" />
<glyph unicode="o" horiz-adv-x="724" d="M113 61q68 -80 166 -80q5 0 10 1q158 4 276 118q119 117 119 268v5q0 104 -43 104q-37 0 -121 -51q49 -84 49 -139q0 -96 -49 -166q-55 -80 -145 -80q-86 0 -139.5 61.5t-53.5 149.5q0 111 58 201q63 106 168 106q90 0 135 -51l73 29q31 12 31 30q0 16 -59 33 q-51 10 -76 10q-133 0 -252 -63q-219 -116 -219 -292q0 -109 72 -194z" />
<glyph unicode="p" horiz-adv-x="808" d="M-57 -408q18 0 51 29q43 43 72 57q12 119 71 314q18 0 55 -5t56 -5q158 0 334 174q178 174 178 329q0 53 -44 84t-100 31q-141 0 -364 -278q-2 41 53 159q55 117 55 119q0 10 -14 10q-16 0 -121 -45l-92 -36q-35 -13 -47 -15q-18 0 -14 -29q31 0 73 15q49 16 60 16 q-57 -129 -99.5 -240.5t-68.5 -209.5q-94 -351 -94 -474zM154 45q0 106 178 313q119 137 200 138q98 0 99 -103q0 -127 -110.5 -245.5t-235.5 -118.5q-12 0 -32 2t-38 5l-36 6q-17 3 -25 3z" />
<glyph unicode="q" horiz-adv-x="831" d="M41 111q0 -57 40 -93t97 -36q164 0 373 286q-174 -492 -174 -614q0 -20 15.5 -37.5t35.5 -17.5q37 0 84 30l106 72l58 37q0 29 -29 29l-12 -10q-12 -9 -39 -27q-53 -37 -66 -37q-18 0 -18 31q0 106 225 720q6 14 37 74q25 47 29 70q-29 23 -180 22q-190 0 -381 -153 q-201 -160 -201 -346zM170 184q0 152 121 273q106 102 233 106q37 0 121 -24q0 -29 -125 -246q-27 -47 -56.5 -82t-62.5 -61q-78 -61 -131 -62q-100 0 -100 96z" />
<glyph unicode="r" horiz-adv-x="557" d="M14 -2q0 -16 9 -16q117 59 120 65q4 8 8.5 27.5t10.5 41t13 43t18 38.5l74 121q28 44 38 57q57 82 76 82q25 0 37 -49q14 -49 18 -50q27 0 62 50q37 51 37 79q0 20 -33 72q-31 51 -49 51q-14 0 -21 -10l-34 -48l-23 -34l-191 -276q10 43 24.5 87t35.5 91l46 108 q17 43 23 66q0 20 -14 20q-213 -100 -254 -100l-2 -31q61 6 111 27l-43 -137q-18 -59 -29 -103q-68 -249 -68 -272z" />
<glyph unicode="s" horiz-adv-x="610" d="M23 121q0 -68 71 -109q57 -31 133 -30q137 0 236 98q100 98 100 235q0 53 -84 256q70 57 80 125q0 31 -31 31q-35 0 -92 -74q-49 -59 -67 -104l-92 -48q-38 -19 -62 -34q8 -27 16 -27q39 18 69 33.5t52 30.5q88 -184 88 -271q0 -82 -49 -145q-55 -70 -133 -70h-4 q-115 0 -115 109q0 90 60 178q31 45 30 66q0 10 -12 14l-66 -34q-32 -15 -61 -27q-68 -74 -68 -190q1 -6 1 -13z" />
<glyph unicode="t" horiz-adv-x="446" d="M41 72q0 -90 61 -90q123 0 250 116q0 31 -18 31q-94 -76 -121 -76q-41 0 -41 43q0 90 111 402q21 -2 39 -2q36 0 59 8q12 6 45 31q33 27 33 36l-6 25q-33 -16 -91 -16h-22q-12 0 -27 2l144 340q0 12 -13 12q-6 0 -135 -55l-104 -285h-84l-53 -86l98 -6 q-125 -338 -125 -430z" />
<glyph unicode="u" horiz-adv-x="804" d="M156 -18q104 0 221 133l93 110q42 51 75 97q-2 -18 -37 -109q-23 -68 -23 -127q0 -41 21.5 -77t60.5 -36q20 4 46 17l59 28q33 16 54.5 33t35.5 31q0 20 -25 20l-39 -22q-35 -23 -45 -23q-45 0 -45 43q0 41 129 371q51 127 51 133t-4 6q-12 0 -149 -67 q-90 -185 -279 -393q-84 -90 -133 -91q-45 0 -45 74q0 14 84 244q20 53 74 145q43 70 43 80q0 12 -17 12l-100 -39q-51 -20 -98 -33.5t-88 -23.5q4 -35 22 -31l101 27q-143 -271 -144 -420q1 -112 101 -112z" />
<glyph unicode="v" horiz-adv-x="770" d="M41 102q0 -59 45 -89.5t107 -30.5q238 0 401 196q127 158 127 279q0 154 -122 153h-3q-35 0 -70 -22q-41 -29 -41 -58q0 -25 21 -18q16 4 20 4q33 0 52.5 -37t19.5 -77q0 -124 -98 -246q-104 -131 -230 -131q-37 0 -68.5 24.5t-31.5 61.5q0 55 45 182l41 101q18 44 35 73 q12 23 27 46l34 50q20 31 19 39q0 18 -13 19q-92 -49 -284 -80q0 -37 14 -37l90 14l-43 -98q-18 -41 -29 -70q-65 -160 -65 -248z" />
<glyph unicode="w" horiz-adv-x="1167" d="M41 66q0 -33 23.5 -58.5t56.5 -25.5q70 0 194 118q37 37 160 172q-23 -106 -22 -147q2 -143 153 -143q162 0 336 186q176 188 176 350q0 41 -33.5 66.5t-76.5 25.5q-27 0 -70 -20q-53 -23 -53 -41q0 -14 4 -19q8 -6 39 0q29 6 48 -24.5t19 -61.5q0 -113 -86 -243 q-98 -152 -223 -152q-47 0 -80 30t-33 77q0 123 183 446q0 -2 -15 25l-83 -39q-36 -16 -62 -25q-33 -61 -75 -128.5t-95 -141.5q-147 -207 -215 -207q-43 0 -43 53q0 66 73.5 236t123.5 223q-6 20 -11 25q0 -4 -299 -95q0 -35 13 -34l102 28l-55 -148l-27 -71 q-47 -147 -47 -237z" />
<glyph unicode="x" horiz-adv-x="913" d="M4 59q0 -78 123 -78q6 0 12 1q131 2 234 129q39 -137 178 -138q72 0 172 58q88 51 88 69q0 23 -27 23q-100 -78 -153 -78q-59 0 -100.5 41t-43.5 100q0 29 19 70q178 0 178 55q0 27 -6 31q-49 -14 -107 -14q-12 0 -24 1t-25 3q4 63 66 131q66 72 125 72q16 0 44.5 -14.5 t41.5 -16.5q78 47 78 74q-23 25 -91 24q-90 0 -239 -125q-20 39 -34.5 63.5t-25.5 34.5q-31 35 -81 35q-29 0 -61 -7t-62.5 -21.5t-57 -33t-41.5 -38.5q6 -25 13 -25q88 57 116 58q104 0 105 -142q0 -41 -12 -73q-59 0 -134 24l-69 -49q-20 -14 -21 -29l96 -15q46 -7 87 -11 q0 -63 -54 -135q-55 -78 -116 -78q-68 0 -68 49q0 10 6 27.5t6 23.5q0 10 -8 17q-17 2 -31 2q-96 -1 -96 -95z" />
<glyph unicode="y" horiz-adv-x="761" d="M14 -313q0 -41 37 -66q29 -20 74 -20q162 0 305 186q178 227 254 664q20 94 31 135q0 25 -27 24q-35 -16 -58 -31l-40 -26q-27 -113 -66 -176q-35 -63 -116 -152q-147 -160 -207 -159q-43 0 -43 53q0 93 78 241q115 219 114 234q0 16 -12 16q-190 -78 -264 -98 q0 -31 18 -31q39 12 68 19q0 -14 -65.5 -186.5t-65.5 -217.5q0 -115 80 -114q90 0 229 127q59 55 109.5 112.5t89.5 116.5q-23 -180 -101 -385q-106 -285 -225 -285q-68 0 -68 62q0 10 4 30q-16 18 -36 19q-33 0 -65 -29.5t-32 -62.5z" />
<glyph unicode="z" horiz-adv-x="722" d="M-35 8q0 -27 23 -26q12 0 65 12q51 12 84 12q61 0 182 -12q119 -12 179 -12q156 172 155 178q0 10 -9.5 16t-14.5 6q-6 0 -70 -86q-39 8 -84 11.5t-98 3.5q-96 0 -215 -13q49 63 141 156q172 20 189 31q39 20 38 69q6 0 -38 -6q-47 -6 -68 -6q0 16 246 236q0 25 -13 24 q-82 -27 -125 -27q-201 0 -292 35q-129 -66 -129 -86q29 -47 256 -47q39 0 70.5 2t60.5 6q0 -12 -64 -69q-29 -25 -48 -43.5t-34 -30.5q-6 -6 -22 -6q-14 0 -58 6q-41 10 -59 6l-44 -42q-19 -19 -36 -34q33 -6 60.5 -9t54.5 -5z" />
<glyph unicode="{" horiz-adv-x="571" d="M102 6q0 -104 74 -158q64 -46 153 -46q14 0 27 1l9 31q-131 14 -132 156q0 27 11 71l71 291q8 31 9 68q0 104 -107 131q158 47 213 225l121 395q29 92 84 134q49 35 147 59l9 33l-93.5 -15.5l-93.5 -15.5q-137 -39 -180 -178l-137 -430q-49 -154 -174 -199 q76 -33 75 -115q0 -39 -12 -90l-63 -270q-11 -47 -11 -78z" />
<glyph unicode="|" horiz-adv-x="604" d="M236 0h122v1298h-122v-1298z" />
<glyph unicode="}" horiz-adv-x="571" d="M-190 -197q160 25 186 31q131 27 178 176l137 430q49 154 174 199q-76 33 -75 115q0 37 12 90l63 270q10 47 11 82q0 201 -254 201l-9 -31q131 -14 132 -156q0 -29 -11 -73l-71 -291q-8 -31 -9 -68q0 -104 107 -131q-80 -31 -105 -49q-72 -55 -108 -176l-121 -395 q-27 -88 -82 -131q-49 -35 -147 -60z" />
<glyph unicode="~" horiz-adv-x="1001" d="M61 489l62 -69q92 150 182 149q61 0 196.5 -63.5t205.5 -63.5q133 0 239 187l-61 73q-82 -137 -180 -137q-41 0 -183 64q-147 66 -217 65q-127 0 -244 -205z" />
<glyph unicode="&#xa1;" horiz-adv-x="395" d="M2 -2q0 -4 5 -11t3 -14q12 -4 39 -4q4 0 57 31q29 14 42.5 22.5t15.5 10.5l242 956l7 30q3 13 7 23l-47 5q-94 -305 -186.5 -565.5t-184.5 -483.5zM410 1288q0 -41 16 -41q27 0 56.5 16.5t58.5 16.5q6 92 30 125q0 6 -6 18q-155 0 -155 -135z" />
<glyph unicode="&#xa2;" horiz-adv-x="638" d="M123 571q45 -57 115 -79l-52 -160h62l47 149h16q59 0 183 54q131 56 131 109v3q-4 25 -25 12l-63 -47q-25 -18 -35 -22q-33 -20 -80 -21q-53 0 -92 19l86 271l53 169q8 -2 43 -27q35 -23 39 -22q18 0 74 31q59 31 55 47q0 29 -70 43q-51 11 -82 10h-10h-22l45 139h-62 l-47 -149q-143 -33 -248 -142q-109 -117 -108 -253q0 -74 47 -134zM205 776q0 229 205 256l-81 -254q-34 -102 -50 -160q-74 64 -74 158z" />
<glyph unicode="&#xa3;" horiz-adv-x="1366" d="M6 -18l8 -15l122 33q46 12 67 16q193 41 411 41q266 0 476 -57l56 -15q26 -7 48 -18l-37 -100l23 -8q43 90 139 229q-246 72 -463 72q-53 0 -123 -6q-111 -10 -209 -24.5t-188 -35.5q-121 -29 -246 -74q94 94 157.5 174t98.5 146q37 70 80 203l37 123l354 2l14 45h-358 q8 25 14.5 52.5t12.5 57.5q63 309 110 389q37 66 97 121q121 109 256 109q178 0 243 -133q33 -66 33 -187q0 -217 -139 -372q-98 -109 -234 -166l13 -31q94 39 175 93t152 124q178 174 178 358q0 123 -73.5 214.5t-192.5 123.5q-49 14 -127 15q-203 0 -383 -164 q-135 -125 -211 -297q-23 -53 -47 -130t-47 -177h-266l-19 -47h275q-51 -209 -94 -341t-82 -190q-78 -114 -111 -153z" />
<glyph unicode="&#xa4;" horiz-adv-x="825" d="M92 737l92 -90q-70 -84 -69 -192q0 -96 69 -191l-90 -90l37 -37l92 88q82 -68 191 -67q100 0 190 67l90 -90l39 39l-90 90q68 98 68 191q0 96 -68 192l90 90l-39 39l-90 -90q-84 68 -190 68q-100 0 -193 -68l-90 90zM174 454.5q0 100.5 70 170.5q72 72 170 71.5 t168 -69.5q72 -72 71 -170q0 -49 -18.5 -93.5t-51 -77t-76.5 -52t-93 -19.5q-100 0 -170 69.5t-70 170z" />
<glyph unicode="&#xa5;" horiz-adv-x="1671" d="M-102 -290.5q0 -24.5 49 -24.5q47 0 143 18q131 -37 256 -37q270 0 500 168q203 152 295 359h252l61 63q-10 0 -46 -1t-97.5 -3t-98.5 -2h-49l43 109q16 42 21 59h143q57 0 80 2l61 63q-215 -6 -262 -6l146 380l96 249q57 139 57 151q0 6 -6 11q-1 1 -3 0q-4 0 -11 -2 l-139 -72q-109 -266 -197 -526q-51 -152 -68 -193l-592 -4q2 10 9.5 95t23.5 245q14 143 20.5 229t6.5 119q0 109 -27 109l-20 -11l-137 -73q37 -59 36 -144q0 -25 -5 -94t-15 -186l-18 -209q-6 -72 -9 -80l-209 -4l-63 -61q119 12 270 12q-2 -29 -2 -51v-39v-37 q0 -20 2 -45l-264 -4l-63 -62q125 12 335 13q51 -211 218 -211q160 0 346 211h65q-90 -209 -162 -291q-123 -137 -329 -138q-117 0 -222 33q-147 45 -190 45q-63 0 -147 -53q-84 -55 -84 -79.5zM530 418h566q-23 -39 -52.5 -80t-68.5 -88l-438 -4q-7 48 -8 115q0 27 1 57z M547 193h377q-59 -66 -95 -89q-53 -39 -122 -38q-117 0 -160 127zM1018 250l45 57l31 41l-39 -98h-37z" />
<glyph unicode="&#xa6;" horiz-adv-x="473" d="M195 -356h84v714h-84v-714zM195 666h84v716h-84v-716z" />
<glyph unicode="&#xa7;" horiz-adv-x="1150" d="M-68 -227l54 -31l37 -21q143 -68 311 -67q213 0 350 100q168 119 168 279q0 29 -18 100q80 43 122 80q123 100 123 227q0 94 -149 242l-115 104l-115 103q-190 180 -190 323q0 47 25 103q76 61 192 61q197 0 410 -164l33 80q17 41 38 82q-197 92 -348 92 q-250 0 -391 -166q-86 -102 -86 -198q0 -59 14 -96q-94 -35 -131 -62q-139 -90 -139 -221q0 -90 102 -199q47 -51 101.5 -103t118.5 -106q240 -213 239 -378q0 -109 -98 -197q-25 -8 -62 -8q-98 0 -233 47q-88 33 -157.5 69.5t-123.5 81.5l-26.5 -55l-16.5 -35l-24 -41 q-11 -16 -15 -26zM287 815q0 98 73 139q27 14 50 23q29 -47 72.5 -99.5t103.5 -109.5q82 -80 110 -104q139 -125 185 -189q53 -78 53 -139q0 -92 -70 -143q-37 -27 -43 -33q-12 23 -20 36t-13 19q-80 100 -108 115l-121 114l-89 81l-30 28q-10 8 -25 26l-38 44 q-90 106 -90 192z" />
<glyph unicode="&#xa8;" horiz-adv-x="604" d="M41 723q0 -6 8 -6q10 0 29 8l115 23q20 37 67 98q16 25 14 39q0 2 -4 2l-28 -8q-27 -8 -58 -9q-27 0 -47 7q-4 -16 -17.5 -41t-36 -53.5t-32.5 -44.5zM307 723q0 -6 8 -6q10 0 29 8l115 23q20 37 67 98q16 25 15 39q0 2 -4 2l-29 -8q-27 -8 -57 -9q-27 0 -48 7 q-4 -16 -17 -41t-35.5 -53.5t-33.5 -44.5z" />
<glyph unicode="&#xa9;" horiz-adv-x="1843" d="M10 756q0 -281 219 -531q242 -276 594 -276q451 0 717 219q283 236 283 682q0 305 -161 465t-466 160q-340 0 -575 -140q-57 -35 -108.5 -79t-98.5 -97q-111 -129 -111 -239q0 -10 23 -23q33 -16 49 -31q-2 13 -2 26q0 89 84 206q72 98 176 184q74 57 235 102 q158 41 258 41q266 0 426 -161q160 -164 160 -428q0 -387 -194 -598q-199 -217 -584 -218q-338 0 -574 228q-236 229 -235 567q0 133 86 285q78 133 192 233q272 238 754 238q39 0 117 -6q76 -6 117 -6q31 0 30.5 18t-90.5 31l-63.5 7t-50.5 3q-315 0 -504 -47 q-248 -61 -441 -236q-70 -61 -120 -124.5t-81.5 -134t-46 -149.5t-14.5 -171zM418 555q4 -176 137 -289q124 -105 294 -104h13q41 2 105.5 16.5t150.5 42.5q197 70 197 129q0 20 -43 37q-133 -74 -174 -90q-80 -33 -170 -33q-166 0 -254 89t-88 255q0 215 129 398 q145 201 352 200q57 0 125 -20q96 -29 96 -66v-12q-2 -4 -2 -18q0 -25 57 -25q39 0 66 38t27 77q0 63 -103 100q-80 29 -153 29q-303 0 -535 -226q-227 -221 -227 -517v-11z" />
<glyph unicode="&#xaa;" horiz-adv-x="468" d="M66 895q0 -74 67 -74q82 0 191 142q-25 -66 -25 -97q0 -45 53 -45q16 0 52 6l94 17q12 2 12 10q0 6 -8 6l-46 -3q-15 -1 -18 -1q-53 0 -53 37q0 70 123 326q-12 2 -25.5 3t-27.5 1q-168 0 -287 -123q-102 -107 -102 -205zM154 932q0 68 55 151.5t131 83.5q45 0 72 -8 q-123 -266 -219 -266q-39 0 -39 39z" />
<glyph unicode="&#xab;" horiz-adv-x="677" d="M43 326l90 -127q39 -57 68 -105l96 64l-74 103l-69 97l90 67l90 62l-29 35l-196 -147zM270 326l90 -127q39 -57 68 -105l96 64l-73 103l-70 97l90 67l90 62l-29 35l-139 -106z" />
<glyph unicode="&#xac;" horiz-adv-x="1128" d="M195 336h655v-285h84v369h-739v-84z" />
<glyph unicode="&#xad;" horiz-adv-x="614" d="M70 334q0 -16 6 -37l413 8q33 74 33 94q0 21 -43 21h-16l-357 -10q-6 0 -12 -9.5t-11 -22.5t-9 -25.5t-4 -18.5z" />
<glyph unicode="&#xae;" horiz-adv-x="1843" d="M10 756q0 -281 219 -531q242 -276 594 -276q451 0 717 219q283 236 283 682q0 305 -161 465t-466 160q-340 0 -575 -140q-57 -35 -108.5 -79t-98.5 -97q-111 -129 -111 -239q0 -10 23 -23q33 -16 49 -31q-2 13 -2 26q0 89 84 206q72 98 176 184q74 57 235 102 q158 41 258 41q266 0 426 -161q160 -164 160 -428q0 -387 -194 -598q-199 -217 -584 -218q-338 0 -574 228q-236 229 -235 567q0 133 86 285q78 133 192 233q272 238 754 238q39 0 117 -6q76 -6 117 -6q31 0 30.5 18t-90.5 31l-63.5 7t-50.5 3q-315 0 -504 -47 q-248 -61 -441 -236q-70 -61 -120 -124.5t-81.5 -134t-46 -149.5t-14.5 -171zM502 227q0 -41 26 -41q8 0 35 21l38 26l34 23l36 123l42 149q33 113 116 326q74 186 74 217q0 12 -6 12q-47 0 -104 -43l-115 -223q-25 -47 -48.5 -112.5t-45.5 -147.5q-82 -297 -82 -330z M539 1075q0 -33 30 -33q-4 0 70 23q217 68 481 68q303 0 303 -117q0 -70 -100 -146q-72 -55 -162 -90l-301 -118q-90 -35 -90 -99q0 -90 227 -258q170 -127 254 -127q31 0 60 27l45 45l102 106l-41 50q-92 -98 -112 -99q-57 0 -240 127q-137 94 -137 141q0 18 61 48l326 139 q92 39 164 110q82 86 82 170q0 126 -168 183q-111 39 -267 39q-41 0 -105.5 -5.5t-156.5 -15.5q-205 -20 -241 -45q-18 -31 -58 -78q-26 -33 -26 -45z" />
<glyph unicode="&#xb0;" horiz-adv-x="677" d="M195 674q0 -43 16 -80t44 -65.5t65.5 -45t80.5 -16.5t81 16.5t65.5 45t44 65.5t16.5 80t-16.5 81t-45 65.5t-65.5 44t-80 16.5t-79.5 -16.5t-65.5 -44t-45 -65.5t-16 -81zM250 674q0 63 44 107t107.5 44t107.5 -44t44 -107q0 -61 -44 -106.5t-107.5 -45.5t-107.5 45.5 t-44 106.5z" />
<glyph unicode="&#xb1;" horiz-adv-x="1128" d="M197 0h653v84h-653v-84zM197 459h284v-285h84v285h285v84h-285v284h-84v-284h-284v-84z" />
<glyph unicode="&#xb2;" horiz-adv-x="698" d="M78 377q0 -8 6 -8t29 6q74 20 227 20q59 0 105.5 -1t78.5 -3q45 -2 45 -12q0 -2 -2 -6t-2 -6q0 -6 6 -7q4 0 13.5 9.5t29.5 36.5q35 41 35 45q0 18 -209 18q-63 0 -114.5 -3t-89.5 -7l236 169q87 62 110 83q104 88 104 155q0 92 -156 92q-88 0 -217 -32q-47 -66 -51 -70 q-8 -8 -10 -14q0 -2 4 -6l25 10q100 35 180 35q104 0 104 -68q0 -66 -127 -170q-190 -156 -334 -240q-26 -14 -26 -26z" />
<glyph unicode="&#xb3;" horiz-adv-x="657" d="M119 305l24 -29q12 -14 35 -14q156 0 281 107q109 90 108 157q0 33 -90 80l-135 68q31 10 37 10q322 76 321 184q0 35 -51 62q-61 29 -162 28q-35 0 -71.5 -2t-75.5 -6q-51 -57 -88 -78q-10 -6 -10 -8t6 -4q16 4 27.5 6t15.5 4q57 12 137 13q174 0 174 -58 q0 -47 -102 -82q-78 -27 -162 -34l-32 -25l-32 -25q-25 -16 -24 -24q0 -16 98 -68l67.5 -37t37 -25t16.5 -21.5t4 -22.5q0 -63 -86 -113q-88 -47 -178 -47q-14 0 -57 6q2 0 -6 1l-21 3q-6 0 -6 -6z" />
<glyph unicode="&#xb4;" horiz-adv-x="681" d="M139 748h82l211 141q39 27 39 67q0 68 -70 68q-49 0 -82 -45z" />
<glyph unicode="&#xb6;" horiz-adv-x="1050" d="M92 1018q0 -152 92 -250q102 -109 287 -111v-424q0 -115 -8 -139q-6 -29 -49 -37q-23 -8 -103 -16v-41h269v1325h110v-1325h268v41q-41 4 -66.5 8t-35.5 8q-43 8 -49 37q-8 35 -8 139v926q0 131 12 154q27 27 147 39v41h-469q-182 0 -294 -119q-103 -109 -103 -256z" />
<glyph unicode="&#xb7;" horiz-adv-x="542" d="M160 489q0 -45 31.5 -73.5t74.5 -28.5t76 28.5t33 73.5q0 43 -33 74t-78 31q-43 0 -73.5 -31t-30.5 -74z" />
<glyph unicode="&#x2219;" horiz-adv-x="542" d="M160 489q0 -45 31.5 -73.5t74.5 -28.5t76 28.5t33 73.5q0 43 -33 74t-78 31q-43 0 -73.5 -31t-30.5 -74z" />
<glyph unicode="&#xb8;" horiz-adv-x="405" d="M-12 -305l18 -39q266 86 266 197q0 98 -125 98h-6l47 59h-49l-92 -127q20 6 43 6q82 0 82 -67q0 -55 -68 -92q-27 -14 -55 -22.5t-61 -12.5z" />
<glyph unicode="&#xb9;" horiz-adv-x="493" d="M197 776l190 98l-174 -489q-4 -12 -4 -14q2 -2 4 -2l92 30l201 559q2 4 2 7q0 4 2 8q-4 6 -12 6l-301 -172v-31z" />
<glyph unicode="&#xba;" horiz-adv-x="411" d="M88 911q0 -104 82 -104q63 0 131 55q117 94 117 248v25q-2 10 -2 18q51 39 51 37q0 6 -6 6q-2 2 -21 0q-39 0 -55 16q-37 39 -41 39q-47 -27 -78 -26q-18 0 -18 -6q10 -25 31 -39q-82 -45 -123 -97q-68 -80 -68 -172zM170 940q0 53 37 120.5t86 98.5q33 -8 39 -8 q6 -29 6 -80q0 -70 -25 -133q-35 -84 -86 -84q-57 0 -57 86z" />
<glyph unicode="&#xbb;" horiz-adv-x="677" d="M29 127l28 -33l197 148l65 49l-90 127q-39 57 -67 104l-96 -63l64 -93l79 -108l-106 -78zM258 127l29 -33l262 197q-88 113 -158 231l-96 -63q41 -63 77 -113l66 -88l-90 -67z" />
<glyph unicode="&#xbc;" horiz-adv-x="1415" d="M197 776l190 98l-174 -489q-4 -12 -4 -14q2 -2 4 -2l92 30l201 559q2 4 2 7q0 4 2 8q-4 6 -12 6l-301 -172v-31zM207 -39q0 -4 4 -4q10 2 26 6l31 8l764 1084q23 29 12 28q-12 -2 -27.5 -6t-35.5 -8l-770 -1098q-4 -12 -4 -10zM643 109q0 -8 8 -9l9 2q9 2 20.5 3t22 3.5 t14.5 2.5q119 18 280 18q-47 -131 -47 -133q0 -4 4 -4q6 0 17 6q27 10 43 15t26 10q8 33 16.5 58l16.5 48q127 0 156 -12q27 -12 24 -13q4 0 21 23l20 31l19 26q0 14 -101 15h-57q-20 -2 -35 -2h-20q20 57 59 155l96 240q0 4 -6 8q-6 0 -43 -14q-20 -8 -32.5 -11.5 t-16.5 -5.5l-13 -48t-9 -29q-20 -59 -49 -133l-64 -164q-76 0 -148.5 -6.5t-142.5 -16.5q166 178 297 381q18 27 19 37q0 6 -2.5 6t-10.5 -2q-43 -14 -84 -21q-23 -53 -55.5 -112.5t-77.5 -128.5q-90 -141 -149 -197l-16.5 -17t-8.5 -9z" />
<glyph unicode="&#xbd;" horiz-adv-x="1378" d="M197 776l190 98l-174 -489q-4 -12 -4 -14q2 -2 4 -2l92 30l201 559q2 4 2 7q0 4 2 8q-4 6 -12 6l-301 -172v-31zM207 -39q0 -4 4 -4q10 2 26 6l31 8l764 1084q23 29 12 28q-12 -2 -27.5 -6t-35.5 -8l-770 -1098q-4 -12 -4 -10zM651 -16q0 -8 6.5 -8.5t28.5 6.5 q76 18 227 18h105q47 0 80 -2q45 -2 45 -12q0 -2 -2 -6.5t-2 -6.5q0 -6 6 -6q4 0 13 9.5t30 33.5q35 41 35 45q0 18 -209 19q-63 0 -114.5 -3t-90.5 -8l237 169q87 62 109 83q104 88 105 156q0 92 -156 92q-88 0 -217 -33q-47 -66 -51 -69q-8 -8 -11 -15q0 -2 4 -6l25 11 q100 35 180 34q104 0 105 -67q0 -66 -127 -170q-190 -156 -334 -240q-27 -14 -27 -24z" />
<glyph unicode="&#xbe;" horiz-adv-x="1517" d="M160 317l24 -28q12 -14 35 -15q156 0 281 107q109 90 108 158q0 33 -90 79l-135 68q31 10 37 10q322 76 321 185q0 35 -51 61q-61 29 -162 29q-35 0 -71.5 -2t-75.5 -6q-51 -57 -88 -78q-10 -6 -10 -8.5t6 -4.5q16 4 27.5 6.5t15.5 4.5q57 12 137 12q174 0 174 -57 q0 -47 -102 -82q-78 -27 -162 -35l-32 -25l-32 -24q-25 -16 -24 -25q0 -16 98 -67q43 -23 67.5 -37.5t37 -25.5t16.5 -21.5t4 -22.5q0 -63 -86 -113q-88 -47 -178 -47q-14 0 -57 6q2 0 -6 2l-21 3q-6 -1 -6 -7zM371 -39q0 -4 4 -4q10 2 25 6l32 8l764 1084q23 29 12 28 q-12 -2 -27.5 -6t-35.5 -8l-770 -1098q-4 -12 -4 -10zM766 109q0 -8 8 -9l9 2q9 2 20.5 3t22 3.5t14.5 2.5q119 18 280 18q-47 -131 -47 -133q0 -4 4 -4q6 0 17 6q27 10 43 15t26 10q8 33 16.5 58l16.5 48q127 0 156 -12q27 -12 24 -13q4 0 21 23l20 31l19 26q0 14 -101 15 h-57q-20 -2 -35 -2h-20l155 397q0 2 -6 6q-6 0 -43 -14q-20 -8 -32.5 -11.5t-16.5 -5.5l-13 -48t-10 -29q-20 -59 -48 -133l-64 -164q-76 0 -148.5 -6.5t-142.5 -16.5q166 178 297 381q18 27 18 37q0 6 -2 6t-10 -2q-43 -14 -84 -21q-23 -53 -55.5 -112.5t-77.5 -128.5 q-90 -141 -149 -197l-16.5 -17t-8.5 -9z" />
<glyph unicode="&#xbf;" horiz-adv-x="808" d="M96 211q0 -109 84 -180q76 -61 193 -62q186 0 319 74q160 94 160 268q0 53 -29 101q-35 53 -84 53q-39 0 -90 -25q-59 -29 -59 -63q0 -23 33 -31l24 -4q12 -2 25 -6q12 -2 24.5 -14.5t22.5 -27.5t16 -32.5t6 -30.5q0 -113 -96 -168q-78 -47 -199 -47q-43 0 -82.5 14.5 t-70.5 40t-48.5 61.5t-17.5 79q0 102 82 192q23 27 65 64l101 88q113 94 162 156q76 94 76 184q0 104 -37 104q-49 0 -70 -88q-29 -109 -51 -131l-103 -96l-71 -61l-114 -105l-81 -74q-90 -108 -90 -233zM676 1264q0 -41 16 -41q27 0 56.5 16t58.5 16q6 92 31 125q0 6 -7 19 q-155 0 -155 -135z" />
<glyph unicode="&#xc0;" d="M30.5 32q55.5 -46 141.5 -46q242 4 530 237q111 92 271 279h305l-115 -410q-4 -20 -4 -31q0 -84 88 -84q59 0 119 43l120 94l85 66l-31 25q-143 -119 -197 -119q-23 0 -22 25q0 14 6 36l111 347q117 27 143 36q37 16 78 58q45 43 43 74l-7 17q-3 7 -7 11q-47 -31 -73 -46 t-30 -17q-45 -21 -102 -21h-10q0 37 186 627q4 16 4 33q0 150 -201 149q-86 0 -202 -33q-133 -145 -134 -155q0 -18 21 -19q-1 0 -1 1q0 3 114 38q125 39 196 39q51 0 51 -67q0 -18 -6 -37q-182 -563 -182 -576h-256l303 524q10 31 10 46q0 16 -12 16q-14 0 -133 -68 q-117 -295 -287 -508h-246q-223 0 -452 -114q-270 -137 -271 -336q0 -88 55.5 -134zM121 242q0 145 149 219q113 56 259 55h20l317 -8q-305 -418 -555 -418q-37 0 -70.5 10.5t-60 31t-43 48t-16.5 62.5zM1165 1737q0 -41 39 -68l211 -141h82l-180 231q-33 45 -82 45 q-70 1 -70 -67z" />
<glyph unicode="&#xc1;" d="M30.5 32q55.5 -46 141.5 -46q242 4 530 237q111 92 271 279h305l-115 -410q-4 -20 -4 -31q0 -84 88 -84q59 0 119 43l120 94l85 66l-31 25q-143 -119 -197 -119q-23 0 -22 25q0 14 6 36l111 347q117 27 143 36q37 16 78 58q45 43 43 74l-7 17q-3 7 -7 11q-47 -31 -73 -46 t-30 -17q-45 -21 -102 -21h-10q0 37 186 627q4 16 4 33q0 150 -201 149q-86 0 -202 -33q-133 -145 -134 -155q0 -18 21 -19q-1 0 -1 1q0 3 114 38q125 39 196 39q51 0 51 -67q0 -18 -6 -37q-182 -563 -182 -576h-256l303 524q10 31 10 46q0 16 -12 16q-14 0 -133 -68 q-117 -295 -287 -508h-246q-223 0 -452 -114q-270 -137 -271 -336q0 -88 55.5 -134zM121 242q0 145 149 219q113 56 259 55h20l317 -8q-305 -418 -555 -418q-37 0 -70.5 10.5t-60 31t-43 48t-16.5 62.5zM1403 1528l180 231q33 45 82 45q70 0 70 -67q0 -41 -39 -68l-211 -141 h-82z" />
<glyph unicode="&#xc2;" d="M30.5 32q55.5 -46 141.5 -46q242 4 530 237q111 92 271 279h305l-115 -410q-4 -20 -4 -31q0 -84 88 -84q59 0 119 43l120 94l85 66l-31 25q-143 -119 -197 -119q-23 0 -22 25q0 14 6 36l111 347q117 27 143 36q37 16 78 58q45 43 43 74l-7 17q-3 7 -7 11q-47 -31 -73 -46 t-30 -17q-45 -21 -102 -21h-10q0 37 186 627q4 16 4 33q0 150 -201 149q-86 0 -202 -33q-133 -145 -134 -155q0 -18 21 -19q-1 0 -1 1q0 3 114 38q125 39 196 39q51 0 51 -67q0 -18 -6 -37q-182 -563 -182 -576h-256l303 524q10 31 10 46q0 16 -12 16q-14 0 -133 -68 q-117 -295 -287 -508h-246q-223 0 -452 -114q-270 -137 -271 -336q0 -88 55.5 -134zM121 242q0 145 149 219q113 56 259 55h20l317 -8q-305 -418 -555 -418q-37 0 -70.5 10.5t-60 31t-43 48t-16.5 62.5zM1284 1554l8 -20q94 29 164 58.5t117 62.5q14 -33 29.5 -62.5 t31.5 -56.5q51 53 90 80q-68 100 -110 196q-176 -176 -330 -258z" />
<glyph unicode="&#xc3;" d="M30.5 32q55.5 -46 141.5 -46q242 4 530 237q111 92 271 279h305l-115 -410q-4 -20 -4 -31q0 -84 88 -84q59 0 119 43l120 94l85 66l-31 25q-143 -119 -197 -119q-23 0 -22 25q0 14 6 36l111 347q117 27 143 36q37 16 78 58q45 43 43 74l-7 17q-3 7 -7 11q-47 -31 -73 -46 t-30 -17q-45 -21 -102 -21h-10q0 37 186 627q4 16 4 33q0 150 -201 149q-86 0 -202 -33q-133 -145 -134 -155q0 -18 21 -19q-1 0 -1 1q0 3 114 38q125 39 196 39q51 0 51 -67q0 -18 -6 -37q-182 -563 -182 -576h-256l303 524q10 31 10 46q0 16 -12 16q-14 0 -133 -68 q-117 -295 -287 -508h-246q-223 0 -452 -114q-270 -137 -271 -336q0 -88 55.5 -134zM121 242q0 145 149 219q113 56 259 55h20l317 -8q-305 -418 -555 -418q-37 0 -70.5 10.5t-60 31t-43 48t-16.5 62.5zM1298 1546l15 -10q43 45 61 45q16 0 96 -33q47 -20 111 -20 q51 0 90 16q86 39 166 148l-14 14q-94 -66 -148 -66q-49 0 -137 41q-84 43 -92 43q-37 0 -148 -178z" />
<glyph unicode="&#xc4;" d="M30.5 32q55.5 -46 141.5 -46q242 4 530 237q111 92 271 279h305l-115 -410q-4 -20 -4 -31q0 -84 88 -84q59 0 119 43l120 94l85 66l-31 25q-143 -119 -197 -119q-23 0 -22 25q0 14 6 36l111 347q117 27 143 36q37 16 78 58q45 43 43 74l-7 17q-3 7 -7 11q-47 -31 -73 -46 t-30 -17q-45 -21 -102 -21h-10q0 37 186 627q4 16 4 33q0 150 -201 149q-86 0 -202 -33q-133 -145 -134 -155q0 -18 21 -19q-1 0 -1 1q0 3 114 38q125 39 196 39q51 0 51 -67q0 -18 -6 -37q-182 -563 -182 -576h-256l303 524q10 31 10 46q0 16 -12 16q-14 0 -133 -68 q-117 -295 -287 -508h-246q-223 0 -452 -114q-270 -137 -271 -336q0 -88 55.5 -134zM121 242q0 145 149 219q113 56 259 55h20l317 -8q-305 -418 -555 -418q-37 0 -70.5 10.5t-60 31t-43 48t-16.5 62.5zM1292 1536q0 -6 8 -6q10 0 29 8l115 23q20 37 67 98q16 25 15 39 q0 2 -4 2l-29 -8q-27 -8 -57 -9q-27 0 -47 7q-4 -16 -17.5 -41t-36 -53.5t-32.5 -44.5zM1559 1536q0 -6 8 -6q10 0 28 8l115 23q20 37 68 98q16 25 14 39q0 2 -4 2l-29 -8q-27 -8 -57 -9q-27 0 -47 7q-4 -16 -17.5 -41t-36 -53.5t-32.5 -44.5z" />
<glyph unicode="&#xc5;" d="M30.5 32q55.5 -46 141.5 -46q242 4 530 237q111 92 271 279h305l-115 -410q-4 -20 -4 -31q0 -84 88 -84q59 0 119 43l120 94l85 66l-31 25q-143 -119 -197 -119q-23 0 -22 25q0 14 6 36l111 347q117 27 143 36q37 16 78 58q45 43 43 74l-7 17q-3 7 -7 11q-47 -31 -73 -46 t-30 -17q-45 -21 -102 -21h-10q0 37 186 627q4 16 4 33q0 150 -201 149q-86 0 -202 -33q-133 -145 -134 -155q0 -18 21 -19q-1 0 -1 1q0 3 114 38q125 39 196 39q51 0 51 -67q0 -18 -6 -37q-182 -563 -182 -576h-256l303 524q10 31 10 46q0 16 -12 16q-14 0 -133 -68 q-117 -295 -287 -508h-246q-223 0 -452 -114q-270 -137 -271 -336q0 -88 55.5 -134zM121 242q0 145 149 219q113 56 259 55h20l317 -8q-305 -418 -555 -418q-37 0 -70.5 10.5t-60 31t-43 48t-16.5 62.5zM1346 1686q0 -68 42 -109t109 -41q66 0 109 44t43 110q0 98 -93 139 q-22 11 -53 11q-9 0 -18 -1q-96 -8 -131 -98q-8 -18 -8 -55zM1382 1690q0 74 72 104q16 8 33 8h6q49 0 83 -29q36 -32 36 -85q0 -49 -32 -82t-81 -33q-51 0 -84 34t-33 83z" />
<glyph unicode="&#xc6;" horiz-adv-x="2390" d="M-25 160q0 -82 55.5 -128t141.5 -46q358 0 801 516h305l-68 -228q-51 -174 -51 -213q0 -84 88 -84q41 0 86 23q115 -84 402 -84q207 0 389 107q186 106 186 229q0 47 -30.5 81t-75.5 34q-102 0 -109 -86q61 -23 62 -68q0 -117 -156 -197q-129 -63 -260 -63q-94 0 -182 43 q-96 43 -142 119q-16 33 -16 75q0 201 205 351q176 127 393 164q96 66 96 83q0 23 -20 25l-121 25q-61 12 -121 22q-162 45 -162 148q0 115 139 204q125 82 250 82q63 0 119 -20q80 -29 80 -76q0 -37 -43 -82q27 -31 70 -31q51 0 92 35t41 84q0 78 -95 117q-74 29 -159 29 q-152 0 -287 -52q-150 -51 -246 -151q31 98 31 119q0 150 -201 149q-86 0 -202 -33q-133 -145 -134 -155q0 -20 21 -19l2 2l96 37q98 39 211 39q51 0 51 -67q0 -16 -6 -37l-98 -295q-41 -125 -61.5 -194.5t-22.5 -86.5h-256l303 525q10 16 10 45q0 16 -12 16q-14 0 -133 -68 q-117 -295 -287 -508h-246q-281 0 -503 -145q-220 -145 -220 -311zM121 242q0 137 141 215q115 59 266 59q4 0 88 -2l250 -6q-305 -418 -555 -418q-76 0 -129 39q-61 43 -61 113zM1473 606q39 156 79 285q25 -72 129 -121q55 -27 177 -61q-47 -10 -96.5 -22.5t-98.5 -22.5 q-59 -14 -106 -29t-84 -29z" />
<glyph unicode="&#xc7;" horiz-adv-x="1280" d="M252 96q152 -129 364 -135l-61 -86q20 6 43 6q82 0 82 -67q0 -55 -70 -93q-27 -14 -55.5 -22t-60.5 -12l20 -39q266 86 266 196q0 98 -126 99h-5l15 18q147 6 340 84q203 82 202 139q0 14 -24 25q-188 -102 -230 -117q-104 -41 -223 -41q-465 0 -465 465q0 289 174 531 q190 266 469 266q80 0 178 -33q131 -39 132 -100v-17q-2 -6 -3 -22q0 -12 54 -13q18 0 35.5 12.5t31 31t21.5 41t8 42.5q0 76 -125 115q-92 31 -184 31q-389 0 -676 -285q-287 -281 -287 -664q0 -217 160 -356z" />
<glyph unicode="&#xc8;" horiz-adv-x="1187" d="M33 211q0 -182 170 -250q111 -45 329 -45q164 0 353 86q223 104 223 250q0 47 -30.5 81t-76.5 34q-102 -4 -108 -86q61 -23 61 -68q0 -117 -157 -197q-129 -63 -258 -63q-113 0 -220 59q-121 71 -120 175q0 228 254 384q174 106 344 134q96 66 96 83q0 23 -21 25 q-207 35 -272 57q-131 45 -131 138q0 115 141 204q125 82 248 82q63 0 119 -20q80 -29 80 -76q0 -37 -43 -82q27 -31 69 -31q51 0 92.5 35t41.5 84q0 78 -95 117q-74 29 -159 29q-197 -2 -392 -99q-231 -121 -231 -299q0 -106 111 -170q49 -27 204 -73q-193 -49 -370 -162 q-252 -158 -252 -336zM639 1739q0 -43 39 -68l211 -141h82l-180 231q-33 45 -82 45q-70 1 -70 -67z" />
<glyph unicode="&#xc9;" horiz-adv-x="1187" d="M33 211q0 -182 170 -250q111 -45 329 -45q164 0 353 86q223 104 223 250q0 47 -30.5 81t-76.5 34q-102 -4 -108 -86q61 -23 61 -68q0 -117 -157 -197q-129 -63 -258 -63q-113 0 -220 59q-121 71 -120 175q0 228 254 384q174 106 344 134q96 66 96 83q0 23 -21 25 q-207 35 -272 57q-131 45 -131 138q0 115 141 204q125 82 248 82q63 0 119 -20q80 -29 80 -76q0 -37 -43 -82q27 -31 69 -31q51 0 92.5 35t41.5 84q0 78 -95 117q-74 29 -159 29q-197 -2 -392 -99q-231 -121 -231 -299q0 -106 111 -170q49 -27 204 -73q-193 -49 -370 -162 q-252 -158 -252 -336zM887 1530l180 231q33 45 82 45q70 0 70 -67q0 -43 -39 -68l-211 -141h-82z" />
<glyph unicode="&#xca;" horiz-adv-x="1187" d="M33 211q0 -182 170 -250q111 -45 329 -45q164 0 353 86q223 104 223 250q0 47 -30.5 81t-76.5 34q-102 -4 -108 -86q61 -23 61 -68q0 -117 -157 -197q-129 -63 -258 -63q-113 0 -220 59q-121 71 -120 175q0 228 254 384q174 106 344 134q96 66 96 83q0 23 -21 25 q-207 35 -272 57q-131 45 -131 138q0 115 141 204q125 82 248 82q63 0 119 -20q80 -29 80 -76q0 -37 -43 -82q27 -31 69 -31q51 0 92.5 35t41.5 84q0 78 -95 117q-74 29 -159 29q-197 -2 -392 -99q-231 -121 -231 -299q0 -106 111 -170q49 -27 204 -73q-193 -49 -370 -162 q-252 -158 -252 -336zM811 1556l8 -20q94 29 164 58.5t117 62.5q14 -33 29.5 -62.5t31.5 -56.5q49 49 90 80q-68 100 -110 197q-176 -177 -330 -259z" />
<glyph unicode="&#xcb;" horiz-adv-x="1187" d="M33 211q0 -182 170 -250q111 -45 329 -45q164 0 353 86q223 104 223 250q0 47 -30.5 81t-76.5 34q-102 -4 -108 -86q61 -23 61 -68q0 -117 -157 -197q-129 -63 -258 -63q-113 0 -220 59q-121 71 -120 175q0 228 254 384q174 106 344 134q96 66 96 83q0 23 -21 25 q-207 35 -272 57q-131 45 -131 138q0 115 141 204q125 82 248 82q63 0 119 -20q80 -29 80 -76q0 -37 -43 -82q27 -31 69 -31q51 0 92.5 35t41.5 84q0 78 -95 117q-74 29 -159 29q-197 -2 -392 -99q-231 -121 -231 -299q0 -106 111 -170q49 -27 204 -73q-193 -49 -370 -162 q-252 -158 -252 -336zM657 1536q0 -6 9 -6q10 0 28 8l115 23q20 37 68 98q16 25 14 39q0 2 -4 2l-29 -8q-27 -8 -57 -9q-27 0 -47 7q-4 -16 -17.5 -41t-36 -53.5t-32.5 -44.5zM924 1536q0 -6 8 -6q10 0 29 8l114 23q20 37 68 98q16 25 14 39q0 2 -4 2l-29 -8q-27 -8 -57 -9 q-27 0 -47 7q-4 -16 -17.5 -41t-36 -53.5t-32.5 -44.5z" />
<glyph unicode="&#xcc;" horiz-adv-x="1327" d="M45 270q0 -129 109 -209q98 -70 224 -69h7q362 2 606 213q133 115 219 340q39 100 61.5 199.5t26.5 199.5q10 74 15.5 188.5t5.5 272.5q0 18 -19 31q-203 -178 -272 -179q-35 0 -35 41q0 23 25 70q25 45 24 55q0 12 -18 13q-4 0 -154 -60q-25 -8 -43 -76q-16 -59 -16 -92 q0 -72 50 -72q3 0 5 1q61 2 160 57q39 20 68.5 39.5t52.5 40.5q20 -6 20 -68v-178q0 -147 -49 -340q-49 -201 -123 -317q-211 -340 -573 -344h-9q-96 0 -163 41q-82 49 -82 151q0 147 162 389q39 59 96 105q49 39 49 41q0 14 -16 14q-10 0 -234 -98q-53 -59 -110 -168 q-70 -134 -70 -232zM864 1739q0 -41 39 -68l211 -141h82l-180 231q-33 45 -82 45q-70 1 -70 -67z" />
<glyph unicode="&#xcd;" horiz-adv-x="1327" d="M45 270q0 -129 109 -209q98 -70 224 -69h7q362 2 606 213q133 115 219 340q39 100 61.5 199.5t26.5 199.5q10 74 15.5 188.5t5.5 272.5q0 18 -19 31q-203 -178 -272 -179q-35 0 -35 41q0 23 25 70q25 45 24 55q0 12 -18 13q-4 0 -154 -60q-25 -8 -43 -76q-16 -59 -16 -92 q0 -72 50 -72q3 0 5 1q61 2 160 57q39 20 68.5 39.5t52.5 40.5q20 -6 20 -68v-178q0 -147 -49 -340q-49 -201 -123 -317q-211 -340 -573 -344h-9q-96 0 -163 41q-82 49 -82 151q0 147 162 389q39 59 96 105q49 39 49 41q0 14 -16 14q-10 0 -234 -98q-53 -59 -110 -168 q-70 -134 -70 -232zM932 1530l180 231q33 45 82 45q70 0 70 -67q0 -41 -39 -68l-211 -141h-82z" />
<glyph unicode="&#xce;" horiz-adv-x="1327" d="M45 270q0 -129 109 -209q98 -70 224 -69h7q362 2 606 213q133 115 219 340q39 100 61.5 199.5t26.5 199.5q10 74 15.5 188.5t5.5 272.5q0 18 -19 31q-203 -178 -272 -179q-35 0 -35 41q0 23 25 70q25 45 24 55q0 12 -18 13q-4 0 -154 -60q-25 -8 -43 -76q-16 -59 -16 -92 q0 -72 50 -72q3 0 5 1q61 2 160 57q39 20 68.5 39.5t52.5 40.5q20 -6 20 -68v-178q0 -147 -49 -340q-49 -201 -123 -317q-211 -340 -573 -344h-9q-96 0 -163 41q-82 49 -82 151q0 147 162 389q39 59 96 105q49 39 49 41q0 14 -16 14q-10 0 -234 -98q-53 -59 -110 -168 q-70 -134 -70 -232zM936 1554l8 -20q94 29 164 58.5t117 62.5q14 -33 29.5 -62.5t31.5 -56.5q51 53 90 80q-68 100 -110 196q-176 -176 -330 -258z" />
<glyph unicode="&#xcf;" horiz-adv-x="1327" d="M45 270q0 -129 109 -209q98 -70 224 -69h7q362 2 606 213q133 115 219 340q39 100 61.5 199.5t26.5 199.5q10 74 15.5 188.5t5.5 272.5q0 18 -19 31q-203 -178 -272 -179q-35 0 -35 41q0 23 25 70q25 45 24 55q0 12 -18 13q-4 0 -154 -60q-25 -8 -43 -76q-16 -59 -16 -92 q0 -72 50 -72q3 0 5 1q61 2 160 57q39 20 68.5 39.5t52.5 40.5q20 -6 20 -68v-178q0 -147 -49 -340q-49 -201 -123 -317q-211 -340 -573 -344h-9q-96 0 -163 41q-82 49 -82 151q0 147 162 389q39 59 96 105q49 39 49 41q0 14 -16 14q-10 0 -234 -98q-53 -59 -110 -168 q-70 -134 -70 -232zM909 1536q0 -6 9 -6q10 0 28 8l115 23q20 37 67 98q16 25 15 39q0 2 -4 2l-29 -8q-27 -8 -57 -9q-27 0 -47 7q-4 -16 -17.5 -41t-36 -53.5t-32.5 -44.5zM1176 1536q0 -6 8 -6q10 0 28 8l115 23q20 37 68 98q16 25 14 39q0 2 -4 2l-29 -8q-27 -8 -57 -9 q-27 0 -47 7q-4 -16 -17.5 -41t-36 -53.5t-32.5 -44.5z" />
<glyph unicode="&#xd1;" horiz-adv-x="1873" d="M-6 135q0 -88 56 -133t149 -45q193 0 350 137q100 88 264 324q100 143 166 364q55 184 55 303q0 16 -4 37q-45 -33 -73.5 -51l-43.5 -27q-49 -373 -186 -647q-39 -78 -87 -143.5t-105 -118.5q-139 -129 -287 -129q-55 0 -94 47t-39 103q0 186 319 467q0 18 -18 18 l-180 -55q-39 -31 -78 -79t-78 -114q-86 -152 -86 -258zM692 1233q0 -14 13 -16q113 63 208 63q88 0 166 -55q70 -53 105 -142q49 -125 89 -260t68 -282l74 -385q27 -143 33 -195q29 0 84 37q174 270 356 758q51 133 84 336l43 286q-10 18 -26 19q-33 0 -66 -43 q-41 -53 -61 -62q0 -14 1 -34.5t3 -49t3 -49t1 -35.5q-2 -72 -8.5 -137t-20.5 -129q-16 -68 -74 -264q-16 -53 -39.5 -112.5t-56.5 -129.5l-35 -70l-82 -165l-91 457q-38 183 -64 280q-43 162 -117 320q-104 223 -274 223q-53 0 -166 -6zM1298 1546l15 -10q43 45 61 45 q16 0 96 -33q47 -20 111 -20q51 0 90 16q86 39 166 148l-14 14q-94 -66 -148 -66q-49 0 -137 41q-84 43 -92 43q-37 0 -148 -178z" />
<glyph unicode="&#xd2;" horiz-adv-x="1527" d="M250 106q158 -152 401 -151q236 0 443 156q182 139 305 366q104 193 104 318q0 115 -45 206q-59 123 -155 123q-47 0 -84 -37.5t-37 -85.5q11 2 21 2q69 0 112 -69q41 -66 41 -154v-6q0 -271 -187 -508q-201 -250 -471 -252h-4q-218 0 -344 187q-100 150 -100 331 q0 387 221 607q193 190 473 190q96 0 248 -82q135 39 158 62q-118 84 -287 84h-8q-367 -4 -660 -263q-303 -271 -303 -626q0 -244 158 -398zM639 1739q0 -43 39 -68l211 -141h82l-180 231q-33 45 -82 45q-70 1 -70 -67z" />
<glyph unicode="&#xd3;" horiz-adv-x="1527" d="M250 106q158 -152 401 -151q236 0 443 156q182 139 305 366q104 193 104 318q0 115 -45 206q-59 123 -155 123q-47 0 -84 -37.5t-37 -85.5q11 2 21 2q69 0 112 -69q41 -66 41 -154v-6q0 -271 -187 -508q-201 -250 -471 -252h-4q-218 0 -344 187q-100 150 -100 331 q0 387 221 607q193 190 473 190q96 0 248 -82q135 39 158 62q-118 84 -287 84h-8q-367 -4 -660 -263q-303 -271 -303 -626q0 -244 158 -398zM887 1530l180 231q33 45 82 45q70 0 70 -67q0 -43 -39 -68l-211 -141h-82z" />
<glyph unicode="&#xd4;" horiz-adv-x="1527" d="M250 106q158 -152 401 -151q236 0 443 156q182 139 305 366q104 193 104 318q0 115 -45 206q-59 123 -155 123q-47 0 -84 -37.5t-37 -85.5q11 2 21 2q69 0 112 -69q41 -66 41 -154v-6q0 -271 -187 -508q-201 -250 -471 -252h-4q-218 0 -344 187q-100 150 -100 331 q0 387 221 607q193 190 473 190q96 0 248 -82q135 39 158 62q-118 84 -287 84h-8q-367 -4 -660 -263q-303 -271 -303 -626q0 -244 158 -398zM932 1556l8 -20q94 29 164 58.5t117 62.5q14 -33 29.5 -62.5t31.5 -56.5l51 46l39 34q-68 100 -110 197q-176 -177 -330 -259z" />
<glyph unicode="&#xd5;" horiz-adv-x="1527" d="M250 106q158 -152 401 -151q236 0 443 156q182 139 305 366q104 193 104 318q0 115 -45 206q-59 123 -155 123q-47 0 -84 -37.5t-37 -85.5q11 2 21 2q69 0 112 -69q41 -66 41 -154v-6q0 -271 -187 -508q-201 -250 -471 -252h-4q-218 0 -344 187q-100 150 -100 331 q0 387 221 607q193 190 473 190q96 0 248 -82q135 39 158 62q-118 84 -287 84h-8q-367 -4 -660 -263q-303 -271 -303 -626q0 -244 158 -398zM819 1544l15 -10q43 45 61 45t96 -33q49 -20 111 -20q53 0 90 16q88 39 166 148l-15 14q-94 -66 -147 -66q-47 0 -135 41 q-84 43 -94 43q-35 0 -148 -178z" />
<glyph unicode="&#xd6;" horiz-adv-x="1527" d="M250 106q158 -152 401 -151q236 0 443 156q182 139 305 366q104 193 104 318q0 115 -45 206q-59 123 -155 123q-47 0 -84 -37.5t-37 -85.5q11 2 21 2q69 0 112 -69q41 -66 41 -154v-6q0 -271 -187 -508q-201 -250 -471 -252h-4q-218 0 -344 187q-100 150 -100 331 q0 387 221 607q193 190 473 190q96 0 248 -82q135 39 158 62q-118 84 -287 84h-8q-367 -4 -660 -263q-303 -271 -303 -626q0 -244 158 -398zM784 1536q0 -6 9 -6q10 0 28 8l115 23q20 37 68 98q16 25 14 39q0 2 -4 2l-29 -8q-27 -8 -57 -9q-27 0 -47 7q-4 -16 -17.5 -41 t-36 -53.5t-32.5 -44.5zM1051 1536q0 -6 8 -6q10 0 28 8l115 23q20 37 68 98q16 25 14 39q0 2 -4 2l-29 -8q-27 -8 -57 -9q-27 0 -47 7q-4 -16 -17.5 -41t-36 -53.5t-32.5 -44.5z" />
<glyph unicode="&#xd7;" horiz-adv-x="1128" d="M233 147l62 -59l221 223l221 -223l60 59l-222 224l222 221l-60 61l-221 -223l-221 223l-62 -61l224 -221z" />
<glyph unicode="&#xd9;" horiz-adv-x="1419" d="M25 162q0 -74 34 -133q39 -68 109 -68q39 0 147 43q123 51 232 131q246 182 475 479l213 283q-250 -682 -250 -848q0 -92 55 -92q117 14 318 184q0 18 -25 19q-139 -86 -170 -86q-35 0 -35 49q0 74 146 504q57 172 123 331q106 260 166 365q12 20 12 41q0 18 -19 18 q-14 0 -149 -63q-92 -242 -291 -520q-84 -117 -169 -219.5t-177 -194.5q-88 -88 -260 -205q-174 -115 -225 -114q-100 0 -101 129q0 53 60 313q35 150 141 354q115 223 215 311l85 17l99 18q31 6 94.5 69.5t63.5 94.5q0 18 -24 19q-74 0 -281 -115q-45 6 -176 57 q-135 53 -131 53q-16 0 -68 -30q-47 -27 -65 -45q51 -59 159 -92q27 -8 68 -18.5t100 -20.5q-72 -61 -142.5 -149.5t-141.5 -205.5q-215 -348 -215 -663zM918 1739q0 -41 38 -68l211 -141h82l-180 231q-33 45 -82 45q-69 1 -69 -67z" />
<glyph unicode="&#xda;" horiz-adv-x="1419" d="M25 162q0 -74 34 -133q39 -68 109 -68q39 0 147 43q123 51 232 131q246 182 475 479l213 283q-250 -682 -250 -848q0 -92 55 -92q117 14 318 184q0 18 -25 19q-139 -86 -170 -86q-35 0 -35 49q0 74 146 504q57 172 123 331q106 260 166 365q12 20 12 41q0 18 -19 18 q-14 0 -149 -63q-92 -242 -291 -520q-84 -117 -169 -219.5t-177 -194.5q-88 -88 -260 -205q-174 -115 -225 -114q-100 0 -101 129q0 53 60 313q35 150 141 354q115 223 215 311l85 17l99 18q31 6 94.5 69.5t63.5 94.5q0 18 -24 19q-74 0 -281 -115q-45 6 -176 57 q-135 53 -131 53q-16 0 -68 -30q-47 -27 -65 -45q51 -59 159 -92q27 -8 68 -18.5t100 -20.5q-72 -61 -142.5 -149.5t-141.5 -205.5q-215 -348 -215 -663zM1106 1530l180 231q33 45 82 45q70 0 70 -67q0 -41 -39 -68l-211 -141h-82z" />
<glyph unicode="&#xdb;" horiz-adv-x="1419" d="M25 162q0 -74 34 -133q39 -68 109 -68q39 0 147 43q123 51 232 131q246 182 475 479l213 283q-250 -682 -250 -848q0 -92 55 -92q117 14 318 184q0 18 -25 19q-139 -86 -170 -86q-35 0 -35 49q0 74 146 504q57 172 123 331q106 260 166 365q12 20 12 41q0 18 -19 18 q-14 0 -149 -63q-92 -242 -291 -520q-84 -117 -169 -219.5t-177 -194.5q-88 -88 -260 -205q-174 -115 -225 -114q-100 0 -101 129q0 53 60 313q35 150 141 354q115 223 215 311l85 17l99 18q31 6 94.5 69.5t63.5 94.5q0 18 -24 19q-74 0 -281 -115q-45 6 -176 57 q-135 53 -131 53q-16 0 -68 -30q-47 -27 -65 -45q51 -59 159 -92q27 -8 68 -18.5t100 -20.5q-72 -61 -142.5 -149.5t-141.5 -205.5q-215 -348 -215 -663zM1042 1556l9 -20q94 29 163.5 58.5t116.5 62.5q14 -33 29.5 -62.5t32.5 -56.5q49 49 90 80q-68 100 -111 197 q-176 -177 -330 -259z" />
<glyph unicode="&#xdc;" horiz-adv-x="1419" d="M25 162q0 -74 34 -133q39 -68 109 -68q39 0 147 43q123 51 232 131q246 182 475 479l213 283q-250 -682 -250 -848q0 -92 55 -92q117 14 318 184q0 18 -25 19q-139 -86 -170 -86q-35 0 -35 49q0 74 146 504q57 172 123 331q106 260 166 365q12 20 12 41q0 18 -19 18 q-14 0 -149 -63q-92 -242 -291 -520q-84 -117 -169 -219.5t-177 -194.5q-88 -88 -260 -205q-174 -115 -225 -114q-100 0 -101 129q0 53 60 313q35 150 141 354q115 223 215 311l85 17l99 18q31 6 94.5 69.5t63.5 94.5q0 18 -24 19q-74 0 -281 -115q-45 6 -176 57 q-135 53 -131 53q-16 0 -68 -30q-47 -27 -65 -45q51 -59 159 -92q27 -8 68 -18.5t100 -20.5q-72 -61 -142.5 -149.5t-141.5 -205.5q-215 -348 -215 -663zM1018 1536q0 -6 8 -6q10 0 29 8l114 23q20 37 68 98q16 25 14 39q0 2 -4 2l-28 -8q-27 -8 -58 -9q-27 0 -47 7 q-4 -16 -17.5 -41t-36 -53.5t-32.5 -44.5zM1284 1536q0 -6 8 -6q10 0 29 8l115 23q20 37 67 98q16 25 15 39q0 2 -5 2l-28 -8q-27 -8 -58 -9q-27 0 -47 7q-4 -16 -17 -41t-35.5 -53.5t-33.5 -44.5z" />
<glyph unicode="&#xdd;" horiz-adv-x="1523" d="M35 211q0 -92 55 -141.5t148 -49.5q362 0 800 525q47 55 95.5 124.5t97.5 155.5q4 8 46 82l120 217v-19q0 -109 -21 -222q-23 -123 -67 -252q-33 -92 -88.5 -214t-135.5 -278q-45 -86 -110.5 -164.5t-157.5 -150.5q-199 -162 -373 -162q-61 0 -135 35q-84 41 -84 100 q0 12 9.5 32.5t9.5 27.5q0 25 -35 24q-47 0 -92 -33q-47 -35 -47 -77q0 -94 110 -127q57 -18 187 -19q199 0 374 96q137 76 306 244q68 68 176 228q72 111 124 208t82 187q72 213 117 518q8 55 16.5 123.5t16.5 152.5q-80 -35 -154 -73q-109 -362 -442 -777 q-117 -145 -289 -278q-213 -164 -352 -164q-92 0 -129 49q-33 41 -33 140q0 178 125 434q143 299 371 483q104 8 164 37q150 94 149 131q0 20 -49 20q-109 0 -221 -94q-109 0 -313 90l-130 -86q2 -37 308 -102q-158 -104 -332 -367q-217 -327 -217 -614zM1192 1530l180 231 q33 45 82 45q70 0 70 -67q0 -43 -39 -68l-211 -141h-82z" />
<glyph unicode="&#xdf;" horiz-adv-x="821" d="M14 -301l88 37l86 315l65 236q24 88 32 123l55 218l35 138q86 326 194 446q16 20 32.5 36t31.5 26q31 -84 31 -182q0 -203 -115 -396q-59 -96 -191 -239l9 -17q49 12 82 13q131 0 180 -117q16 -37 16 -76q0 -90 -61 -160q-82 -94 -293 -102l-2 -25q188 0 297 62 q184 104 184 256q0 104 -68.5 165.5t-173.5 61.5q-43 0 -82 -8q76 78 127.5 137.5t79.5 100.5q141 190 142 407q0 82 -41 199q-168 -49 -308 -207q-182 -211 -256 -533q-23 -102 -49 -264l-43 -274q-12 -76 -21 -125l-14 -72q-33 -127 -49 -180z" />
<glyph unicode="&#xe0;" horiz-adv-x="802" d="M67.5 20.5q38.5 -38.5 98.5 -38.5q131 0 289 182q51 63 59 63q-16 -76 -16 -147q0 -106 86 -107q20 0 110 54q80 49 80 63q0 23 -20 23q-16 0 -49 -20.5t-43 -20.5q-31 0 -31 34q0 86 164 463q-4 41 -174 41q-203 0 -390 -143q-203 -151 -202 -341q0 -67 38.5 -105.5z M170 195q0 135 114.5 243.5t252.5 108.5q92 0 92 -41q-207 -403 -377 -404q-82 1 -82 93zM174 969q0 -41 39 -68l211 -141h82l-180 231q-33 45 -82 45q-70 1 -70 -67z" />
<glyph unicode="&#xe1;" horiz-adv-x="802" d="M67.5 20.5q38.5 -38.5 98.5 -38.5q131 0 289 182q51 63 59 63q-16 -76 -16 -147q0 -106 86 -107q20 0 110 54q80 49 80 63q0 23 -20 23q-16 0 -49 -20.5t-43 -20.5q-31 0 -31 34q0 86 164 463q-4 41 -174 41q-203 0 -390 -143q-203 -151 -202 -341q0 -67 38.5 -105.5z M170 195q0 135 114.5 243.5t252.5 108.5q92 0 92 -41q-207 -403 -377 -404q-82 1 -82 93zM461 760l180 231q37 45 82 45q70 0 70 -67q0 -41 -39 -68l-211 -141h-82z" />
<glyph unicode="&#xe2;" horiz-adv-x="802" d="M67.5 20.5q38.5 -38.5 98.5 -38.5q131 0 289 182q51 63 59 63q-16 -76 -16 -147q0 -106 86 -107q20 0 110 54q80 49 80 63q0 23 -20 23q-16 0 -49 -20.5t-43 -20.5q-31 0 -31 34q0 86 164 463q-4 41 -174 41q-203 0 -390 -143q-203 -151 -202 -341q0 -67 38.5 -105.5z M170 195q0 135 114.5 243.5t252.5 108.5q92 0 92 -41q-207 -403 -377 -404q-82 1 -82 93zM360 774l9 -20q94 29 163.5 58.5t116.5 61.5q14 -33 29.5 -62.5t32.5 -55.5q53 53 90 80q-68 100 -111 196q-176 -176 -330 -258z" />
<glyph unicode="&#xe3;" horiz-adv-x="802" d="M67.5 20.5q38.5 -38.5 98.5 -38.5q131 0 289 182q51 63 59 63q-16 -76 -16 -147q0 -106 86 -107q20 0 110 54q80 49 80 63q0 23 -20 23q-16 0 -49 -20.5t-43 -20.5q-31 0 -31 34q0 86 164 463q-4 41 -174 41q-203 0 -390 -143q-203 -151 -202 -341q0 -67 38.5 -105.5z M170 195q0 135 114.5 243.5t252.5 108.5q92 0 92 -41q-207 -403 -377 -404q-82 1 -82 93zM270 778l15 -10q43 45 61.5 45t95.5 -33q49 -20 111 -20q51 0 90 16q88 39 166 148l-14 14q-94 -66 -148 -66q-47 0 -135 41q-84 43 -94 43q-35 0 -148 -178z" />
<glyph unicode="&#xe4;" horiz-adv-x="802" d="M67.5 20.5q38.5 -38.5 98.5 -38.5q131 0 289 182q51 63 59 63q-16 -76 -16 -147q0 -106 86 -107q20 0 110 54q80 49 80 63q0 23 -20 23q-16 0 -49 -20.5t-43 -20.5q-31 0 -31 34q0 86 164 463q-4 41 -174 41q-203 0 -390 -143q-203 -151 -202 -341q0 -67 38.5 -105.5z M170 195q0 135 114.5 243.5t252.5 108.5q92 0 92 -41q-207 -403 -377 -404q-82 1 -82 93zM303 768q0 -6 8 -6q10 0 29 8l115 23q20 37 67 98q16 25 15 39q0 2 -5 2l-28 -8q-27 -8 -58 -9q-27 0 -47 7q-4 -16 -17 -41t-35.5 -53.5t-33.5 -44.5zM569 768q0 -6 9 -6q10 0 28 8 l115 23q20 37 67 98q16 25 15 39q0 2 -4 2l-29 -8q-27 -8 -57 -9q-27 0 -47 7q-4 -16 -17.5 -41t-36 -53.5t-32.5 -44.5z" />
<glyph unicode="&#xe5;" horiz-adv-x="802" d="M67.5 20.5q38.5 -38.5 98.5 -38.5q131 0 289 182q51 63 59 63q-16 -76 -16 -147q0 -106 86 -107q20 0 110 54q80 49 80 63q0 23 -20 23q-16 0 -49 -20.5t-43 -20.5q-31 0 -31 34q0 86 164 463q-4 41 -174 41q-203 0 -390 -143q-203 -151 -202 -341q0 -67 38.5 -105.5z M170 195q0 135 114.5 243.5t252.5 108.5q92 0 92 -41q-207 -403 -377 -404q-82 1 -82 93zM434 909q0 -68 43 -108.5t109 -40.5q68 0 109.5 43t41.5 110q0 98 -92 140q-28 11 -61 10h-11q-96 -8 -131 -98q-8 -19 -8 -56zM471 913q0 74 72 105q16 8 32 8h7q49 0 83 -31 q36 -33 35.5 -84t-32 -82.5t-80.5 -31.5t-83 32.5t-34 83.5z" />
<glyph unicode="&#xe6;" horiz-adv-x="1183" d="M67.5 20.5q38.5 -38.5 98.5 -38.5q131 0 289 182q51 63 59 63q-16 -76 -16 -147q0 -106 86 -107q27 0 86 37q51 -29 114 -28q150 0 289 108q33 27 33 41q0 16 -21 16q-10 0 -36 -16q-45 -31 -58 -35q-53 -31 -114 -30q-59 0 -107 40l-4 3l-6 8q-49 45 -49 108 q70 16 132 40t122 57q166 88 165 190q0 98 -135 98q-111 0 -219 -82l19 41q-4 41 -174 41q-203 0 -390 -143q-203 -151 -202 -341q0 -67 38.5 -105.5zM170 195q0 135 114.5 243.5t252.5 108.5q92 0 92 -41q-207 -403 -377 -404q-82 1 -82 93zM725 283q0 76 59 172 q63 104 138 104q62 0 62 -57q0 -35 -36 -86q-35 -51 -74 -72q-108 -61 -149 -61z" />
<glyph unicode="&#xe7;" horiz-adv-x="638" d="M95 50q62 -60 151 -68l-78 -107q20 6 43 6q82 0 82 -67q0 -55 -70 -93q-45 -25 -117 -34l21 -39q266 86 266 196q0 98 -126 99h-5l31 41q80 6 178 59q109 64 109 101v1q-4 25 -25 13l-63 -47q-25 -18 -35 -23q-33 -20 -80 -20q-92 0 -154.5 57t-62.5 149q0 117 59.5 189 t171.5 72q18 0 60 -29q39 -27 45 -27q18 0 73 31q59 31 56 47q0 25 -72 41q-53 12 -90 12q-168 0 -301 -125q-131 -123 -131 -281q-1 -92 64 -154z" />
<glyph unicode="&#xe8;" horiz-adv-x="643" d="M41 176q0 -86 59.5 -140t145.5 -54q150 0 289 108q33 27 32 41q0 16 -20 16q-10 0 -37 -16q-45 -31 -57 -35q-53 -31 -115 -30q-31 0 -61.5 13t-53 34.5t-37 51.5t-14.5 60q70 16 132.5 40t121.5 57q166 88 166 190q0 98 -135 98q-133 0 -267 -121q-149 -135 -149 -313z M137 967q0 -41 39 -68l211 -141h82l-180 231q-33 45 -82 45q-70 1 -70 -67zM186 283q0 76 60 172q63 104 137 104q62 0 62 -57q0 -35 -35 -86t-74 -72q-109 -61 -150 -61z" />
<glyph unicode="&#xe9;" horiz-adv-x="643" d="M41 176q0 -86 59.5 -140t145.5 -54q150 0 289 108q33 27 32 41q0 16 -20 16q-10 0 -37 -16q-45 -31 -57 -35q-53 -31 -115 -30q-31 0 -61.5 13t-53 34.5t-37 51.5t-14.5 60q70 16 132.5 40t121.5 57q166 88 166 190q0 98 -135 98q-133 0 -267 -121q-149 -135 -149 -313z M186 283q0 76 60 172q63 104 137 104q62 0 62 -57q0 -35 -35 -86t-74 -72q-109 -61 -150 -61zM362 758l181 231q33 45 82 45q70 0 69 -67q0 -41 -39 -68l-211 -141h-82z" />
<glyph unicode="&#xea;" horiz-adv-x="643" d="M41 176q0 -86 59.5 -140t145.5 -54q150 0 289 108q33 27 32 41q0 16 -20 16q-10 0 -37 -16q-45 -31 -57 -35q-53 -31 -115 -30q-31 0 -61.5 13t-53 34.5t-37 51.5t-14.5 60q70 16 132.5 40t121.5 57q166 88 166 190q0 98 -135 98q-133 0 -267 -121q-149 -135 -149 -313z M186 283q0 76 60 172q63 104 137 104q62 0 62 -57q0 -35 -35 -86t-74 -72q-109 -61 -150 -61zM209 776l8 -20q94 29 164 58.5t117 62.5q14 -33 29.5 -63t31.5 -56l51 46l39 34q-68 100 -110 196q-176 -176 -330 -258z" />
<glyph unicode="&#xeb;" horiz-adv-x="643" d="M41 176q0 -86 59.5 -140t145.5 -54q150 0 289 108q33 27 32 41q0 16 -20 16q-10 0 -37 -16q-45 -31 -57 -35q-53 -31 -115 -30q-31 0 -61.5 13t-53 34.5t-37 51.5t-14.5 60q70 16 132.5 40t121.5 57q166 88 166 190q0 98 -135 98q-133 0 -267 -121q-149 -135 -149 -313z M168 768q0 -6 8 -6q10 0 29 8l114 23q20 37 68 98q16 25 14 39q0 2 -4 2l-28 -8q-27 -8 -58 -9q-27 0 -47 7q-4 -16 -17.5 -41t-36 -53.5t-32.5 -44.5zM186 283q0 76 60 172q63 104 137 104q62 0 62 -57q0 -35 -35 -86t-74 -72q-109 -61 -150 -61zM434 768q0 -6 8 -6 q10 0 29 8l115 23q20 37 67 98q16 25 15 39q0 2 -4 2l-29 -8q-27 -8 -57 -9q-27 0 -48 7q-4 -16 -17 -41t-35.5 -53.5t-33.5 -44.5z" />
<glyph unicode="&#xec;" horiz-adv-x="380" d="M-10 967q0 -41 37 -68l211 -141h81l-180 231q-33 45 -82 45q-67 1 -67 -67zM51 66q0 -29 20.5 -56.5t49.5 -27.5q43 0 88 32l127 99q0 23 -21 22q-84 -68 -98 -67q-37 0 -37 43q0 45 78 247q70 184 102 234q0 18 -16 18q-8 0 -113 -43q-106 -45 -147 -53q0 -33 16 -33 l82 21q-131 -332 -131 -436z" />
<glyph unicode="&#xed;" horiz-adv-x="380" d="M51 66q0 -29 20.5 -56.5t49.5 -27.5q43 0 88 32l127 99q0 23 -21 22q-84 -68 -98 -67q-37 0 -37 43q0 45 78 247q70 184 102 234q0 18 -16 18q-8 0 -113 -43q-106 -45 -147 -53q0 -33 16 -33l82 21q-131 -332 -131 -436zM236 758l180 231q33 45 82 45q70 0 69 -67 q0 -41 -39 -68l-211 -141h-81z" />
<glyph unicode="&#xee;" horiz-adv-x="380" d="M51 66q0 -29 20.5 -56.5t49.5 -27.5q43 0 88 32l127 99q0 23 -21 22q-84 -68 -98 -67q-37 0 -37 43q0 45 78 247q70 184 102 234q0 18 -16 18q-8 0 -113 -43q-106 -45 -147 -53q0 -33 16 -33l82 21q-131 -332 -131 -436zM66 776l8 -20q94 29 163.5 58.5t116.5 62.5 q14 -33 29.5 -63t32.5 -56l51 46l39 34q-68 100 -111 196q-175 -176 -329 -258z" />
<glyph unicode="&#xef;" horiz-adv-x="380" d="M51 66q0 -29 20.5 -56.5t49.5 -27.5q43 0 88 32l127 99q0 23 -21 22q-84 -68 -98 -67q-37 0 -37 43q0 45 78 247q70 184 102 234q0 18 -16 18q-8 0 -113 -43q-106 -45 -147 -53q0 -33 16 -33l82 21q-131 -332 -131 -436zM55 768q0 -6 8 -6q10 0 29 8l115 23q20 37 67 98 q16 25 15 39q0 2 -4 2l-29 -8q-27 -8 -57 -9q-27 0 -47 7q-4 -16 -17.5 -41t-36 -53.5t-32.5 -44.5zM322 768q0 -6 8 -6q10 0 28 8l115 23q20 37 68 98q16 25 14 39q0 2 -4 2l-29 -8q-27 -8 -57 -9q-27 0 -47 7q-4 -16 -17.5 -41t-36 -53.5t-32.5 -44.5z" />
<glyph unicode="&#xf1;" horiz-adv-x="749" d="M-4 -18l84 38l55 25q88 158 211 313q139 176 191 177q43 0 43 -64q0 -49 -52 -184q-53 -145 -135 -293l17 -7l10 -5q47 27 113.5 47t158.5 34q-6 35 -12 35q-37 -8 -64.5 -13t-44.5 -9l41 104l31 78q59 166 59 266q0 86 -72 86h-3q-137 -2 -275 -180l-135 -184 q0 45 37 166q20 59 31.5 107t15.5 83q0 12 -25 12q-55 -49 -227 -102q0 -14 14 -31q35 14 58.5 22.5t38.5 12.5q-12 -96 -62 -229l-69 -185q-33 -89 -33 -120zM193 776l14 -10q43 45 61.5 45t96.5 -33q49 -20 110 -20q51 0 90 16q88 39 166 148l-14 14q-94 -66 -148 -66 q-49 0 -137 41q-84 43 -92 43q-34 0 -147 -178z" />
<glyph unicode="&#xf2;" horiz-adv-x="724" d="M113 61q68 -80 166 -80q5 0 10 1q158 4 276 118q119 117 119 268v5q0 104 -43 104q-37 0 -121 -51q49 -84 49 -139q0 -96 -49 -166q-55 -80 -145 -80q-86 0 -139.5 61.5t-53.5 149.5q0 111 58 201q63 106 168 106q90 0 135 -51l73 29q31 12 31 30q0 16 -59 33 q-51 10 -76 10q-133 0 -252 -63q-219 -116 -219 -292q0 -109 72 -194zM174 969q0 -41 39 -68l211 -141h82l-180 231q-33 45 -82 45q-70 1 -70 -67z" />
<glyph unicode="&#xf3;" horiz-adv-x="724" d="M113 61q68 -80 166 -80q5 0 10 1q158 4 276 118q119 117 119 268v5q0 104 -43 104q-37 0 -121 -51q49 -84 49 -139q0 -96 -49 -166q-55 -80 -145 -80q-86 0 -139.5 61.5t-53.5 149.5q0 111 58 201q63 106 168 106q90 0 135 -51l73 29q31 12 31 30q0 16 -59 33 q-51 10 -76 10q-133 0 -252 -63q-219 -116 -219 -292q0 -109 72 -194zM395 758l180 231q33 45 82 45q70 0 70 -67q0 -41 -39 -68l-211 -141h-82z" />
<glyph unicode="&#xf4;" horiz-adv-x="724" d="M113 61q68 -80 166 -80q5 0 10 1q158 4 276 118q119 117 119 268v5q0 104 -43 104q-37 0 -121 -51q49 -84 49 -139q0 -96 -49 -166q-55 -80 -145 -80q-86 0 -139.5 61.5t-53.5 149.5q0 111 58 201q63 106 168 106q90 0 135 -51l73 29q31 12 31 30q0 16 -59 33 q-51 10 -76 10q-133 0 -252 -63q-219 -116 -219 -292q0 -109 72 -194zM297 776l8 -20q94 29 164 58.5t117 62.5q14 -33 29.5 -63t31.5 -56l51 46l39 34q-68 100 -110 196q-176 -176 -330 -258z" />
<glyph unicode="&#xf5;" horiz-adv-x="724" d="M113 61q68 -80 166 -80q5 0 10 1q158 4 276 118q119 117 119 268v5q0 104 -43 104q-37 0 -121 -51q49 -84 49 -139q0 -96 -49 -166q-55 -80 -145 -80q-86 0 -139.5 61.5t-53.5 149.5q0 111 58 201q63 106 168 106q90 0 135 -51l73 29q31 12 31 30q0 16 -59 33 q-51 10 -76 10q-133 0 -252 -63q-219 -116 -219 -292q0 -109 72 -194zM158 776l14 -10q43 45 61.5 45t96.5 -33q49 -20 110 -20q51 0 90 16q88 39 166 148l-14 14q-94 -66 -147 -66q-49 0 -136 41q-84 43 -94 43q-34 0 -147 -178z" />
<glyph unicode="&#xf6;" horiz-adv-x="724" d="M113 61q68 -80 166 -80q5 0 10 1q158 4 276 118q119 117 119 268v5q0 104 -43 104q-37 0 -121 -51q49 -84 49 -139q0 -96 -49 -166q-55 -80 -145 -80q-86 0 -139.5 61.5t-53.5 149.5q0 111 58 201q63 106 168 106q90 0 135 -51l73 29q31 12 31 30q0 16 -59 33 q-51 10 -76 10q-133 0 -252 -63q-219 -116 -219 -292q0 -109 72 -194zM219 768q0 -6 8 -6q10 0 29 8l115 23q20 37 67 98q16 25 15 39q0 2 -4 2l-29 -8q-27 -8 -58 -9q-27 0 -47 7q-4 -16 -17 -41t-35.5 -53.5t-33.5 -44.5zM485 768q0 -6 9 -6q10 0 28 8l115 23q20 37 68 98 q16 25 14 39q0 2 -4 2l-29 -8q-27 -8 -57 -9q-27 0 -47 7q-4 -16 -17.5 -41t-36 -53.5t-32.5 -44.5z" />
<glyph unicode="&#xf7;" horiz-adv-x="1128" d="M197 336h653v84h-653v-84zM455 125q0 -31 21.5 -52.5t52 -21.5t52 21.5t21.5 52.5t-21.5 52.5t-52 21.5t-52 -21.5t-21.5 -52.5zM457 631q0 -29 21.5 -51.5t52 -22.5t52 21.5t21.5 52.5t-21.5 52.5t-52 21.5t-52 -21.5t-21.5 -52.5z" />
<glyph unicode="&#xf9;" horiz-adv-x="804" d="M156 -18q104 0 221 133l93 110q42 51 75 97q-2 -18 -37 -109q-23 -68 -23 -127q0 -41 21.5 -77t60.5 -36q20 4 46 17l59 28q33 16 54.5 33t35.5 31q0 20 -25 20l-39 -22q-35 -23 -45 -23q-45 0 -45 43q0 41 129 371q51 127 51 133t-4 6q-12 0 -149 -67 q-90 -185 -279 -393q-84 -90 -133 -91q-45 0 -45 74q0 14 84 244q20 53 74 145q43 70 43 80q0 12 -17 12l-100 -39q-51 -20 -98 -33.5t-88 -23.5q4 -35 22 -31l101 27q-143 -271 -144 -420q1 -112 101 -112zM174 969q0 -41 39 -68l211 -141h82l-180 231q-33 45 -82 45 q-70 1 -70 -67z" />
<glyph unicode="&#xfa;" horiz-adv-x="804" d="M156 -18q104 0 221 133l93 110q42 51 75 97q-2 -18 -37 -109q-23 -68 -23 -127q0 -41 21.5 -77t60.5 -36q20 4 46 17l59 28q33 16 54.5 33t35.5 31q0 20 -25 20l-39 -22q-35 -23 -45 -23q-45 0 -45 43q0 41 129 371q51 127 51 133t-4 6q-12 0 -149 -67 q-90 -185 -279 -393q-84 -90 -133 -91q-45 0 -45 74q0 14 84 244q20 53 74 145q43 70 43 80q0 12 -17 12l-100 -39q-51 -20 -98 -33.5t-88 -23.5q4 -35 22 -31l101 27q-143 -271 -144 -420q1 -112 101 -112zM461 760l180 231q37 45 82 45q70 0 70 -67q0 -41 -39 -68 l-211 -141h-82z" />
<glyph unicode="&#xfb;" horiz-adv-x="804" d="M156 -18q104 0 221 133l93 110q42 51 75 97q-2 -18 -37 -109q-23 -68 -23 -127q0 -41 21.5 -77t60.5 -36q20 4 46 17l59 28q33 16 54.5 33t35.5 31q0 20 -25 20l-39 -22q-35 -23 -45 -23q-45 0 -45 43q0 41 129 371q51 127 51 133t-4 6q-12 0 -149 -67 q-90 -185 -279 -393q-84 -90 -133 -91q-45 0 -45 74q0 14 84 244q20 53 74 145q43 70 43 80q0 12 -17 12l-100 -39q-51 -20 -98 -33.5t-88 -23.5q4 -35 22 -31l101 27q-143 -271 -144 -420q1 -112 101 -112zM360 774l9 -20q94 29 163.5 58.5t116.5 61.5q14 -33 29.5 -62.5 t32.5 -55.5q53 53 90 80q-68 100 -111 196q-176 -176 -330 -258z" />
<glyph unicode="&#xfc;" horiz-adv-x="804" d="M156 -18q104 0 221 133l93 110q42 51 75 97q-2 -18 -37 -109q-23 -68 -23 -127q0 -41 21.5 -77t60.5 -36q20 4 46 17l59 28q33 16 54.5 33t35.5 31q0 20 -25 20l-39 -22q-35 -23 -45 -23q-45 0 -45 43q0 41 129 371q51 127 51 133t-4 6q-12 0 -149 -67 q-90 -185 -279 -393q-84 -90 -133 -91q-45 0 -45 74q0 14 84 244q20 53 74 145q43 70 43 80q0 12 -17 12l-100 -39q-51 -20 -98 -33.5t-88 -23.5q4 -35 22 -31l101 27q-143 -271 -144 -420q1 -112 101 -112zM303 768q0 -6 8 -6q10 0 29 8l115 23q20 37 67 98q16 25 15 39 q0 2 -5 2l-28 -8q-27 -8 -58 -9q-27 0 -47 7q-4 -16 -17 -41t-35.5 -53.5t-33.5 -44.5zM569 768q0 -6 9 -6q10 0 28 8l115 23q20 37 67 98q16 25 15 39q0 2 -4 2l-29 -8q-27 -8 -57 -9q-27 0 -47 7q-4 -16 -17.5 -41t-36 -53.5t-32.5 -44.5z" />
<glyph unicode="&#xfd;" horiz-adv-x="761" d="M14 -313q0 -41 37 -66q29 -20 74 -20q162 0 305 186q178 227 254 664q20 94 31 135q0 25 -27 24q-35 -16 -58 -31l-40 -26q-27 -113 -66 -176q-35 -63 -116 -152q-147 -160 -207 -159q-43 0 -43 53q0 93 78 241q115 219 114 234q0 16 -12 16q-190 -78 -264 -98 q0 -31 18 -31q39 12 68 19q0 -14 -65.5 -186.5t-65.5 -217.5q0 -115 80 -114q90 0 229 127q59 55 109.5 112.5t89.5 116.5q-23 -180 -101 -385q-106 -285 -225 -285q-68 0 -68 62q0 10 4 30q-16 18 -36 19q-33 0 -65 -29.5t-32 -62.5zM461 760l180 231q37 45 82 45 q70 0 70 -67q0 -41 -39 -68l-211 -141h-82z" />
<glyph unicode="&#xff;" horiz-adv-x="761" d="M14 -313q0 -41 37 -66q29 -20 74 -20q162 0 305 186q178 227 254 664q20 94 31 135q0 25 -27 24q-35 -16 -58 -31l-40 -26q-27 -113 -66 -176q-35 -63 -116 -152q-147 -160 -207 -159q-43 0 -43 53q0 93 78 241q115 219 114 234q0 16 -12 16q-190 -78 -264 -98 q0 -31 18 -31q39 12 68 19q0 -14 -65.5 -186.5t-65.5 -217.5q0 -115 80 -114q90 0 229 127q59 55 109.5 112.5t89.5 116.5q-23 -180 -101 -385q-106 -285 -225 -285q-68 0 -68 62q0 10 4 30q-16 18 -36 19q-33 0 -65 -29.5t-32 -62.5zM303 768q0 -6 8 -6q10 0 29 8l115 23 q20 37 67 98q16 25 15 39q0 2 -5 2l-28 -8q-27 -8 -58 -9q-27 0 -47 7q-4 -16 -17 -41t-35.5 -53.5t-33.5 -44.5zM569 768q0 -6 9 -6q10 0 28 8l115 23q20 37 67 98q16 25 15 39q0 2 -4 2l-29 -8q-27 -8 -57 -9q-27 0 -47 7q-4 -16 -17.5 -41t-36 -53.5t-32.5 -44.5z" />
<glyph unicode="&#x152;" horiz-adv-x="2347" d="M250 106q158 -152 401 -151q289 0 537 238q8 -172 178 -234q113 -43 322 -43q164 0 352 86q223 104 223 250q0 47 -30.5 81t-75.5 34q-102 -4 -109 -86q61 -23 61 -68q0 -117 -157 -197q-129 -63 -258 -63q-113 0 -219 59q-121 71 -121 175v3q4 227 254 381 q174 106 344 134q96 66 96 83q0 23 -20 25q-207 35 -273 57q-131 45 -131 138q0 115 141 204q125 82 248 82q63 0 119 -20q80 -29 80 -76q0 -37 -43 -82q27 -31 69 -31q51 0 92.5 35t41.5 84q0 78 -95 117q-74 29 -159 29q-197 -2 -392 -99q-231 -121 -231 -299 q0 -106 111 -170q49 -27 204 -73q-195 -49 -370 -162l-8 -6q72 154 71 254q0 115 -45 206q-59 123 -155 123q-47 0 -84 -37.5t-37 -85.5q11 2 21 2q69 0 112 -69q41 -66 41 -154v-7q0 -219 -119 -411l-6 -8q-29 -45 -74 -100q-203 -236 -459 -240h-4q-218 0 -344 187 q-100 150 -100 331q0 387 221 607q193 190 473 190q96 0 248 -82q135 39 158 62q-118 84 -287 84h-8q-367 -4 -660 -263q-303 -271 -303 -626q0 -244 158 -398z" />
<glyph unicode="&#x153;" horiz-adv-x="1144" d="M41 252q0 -104 72 -189q70 -82 176 -81q145 0 266 110q51 -111 186 -110q152 0 289 108q33 27 33 41q0 16 -21 16q-6 0 -77.5 -40.5t-130.5 -40.5q-31 0 -62 13t-53.5 34.5t-36.5 51.5t-14 60q70 16 133 40t123 57q164 90 163 190q0 98 -135 98q-147 0 -288 -143 q-10 10 -23 10q-37 0 -121 -51q37 -63 45 -102q-29 -74 -28 -148q0 -16 2 -24q-59 -111 -164 -111q-86 0 -139.5 61.5t-53.5 149.5q0 111 58 201q63 106 168 106q90 0 135 -51q104 39 104 59q0 18 -57 33q-51 10 -78 10q-164 0 -309 -96q-162 -106 -162 -262zM682 283 q0 76 59 172q63 104 138 104q61 0 61 -53q0 -74 -92 -150q-92 -73 -166 -73z" />
<glyph unicode="&#x178;" horiz-adv-x="1523" d="M35 211q0 -92 55 -141.5t148 -49.5q362 0 800 525q47 55 95.5 124.5t97.5 155.5q4 8 46 82l120 217v-19q0 -109 -21 -222q-23 -123 -67 -252q-33 -92 -88.5 -214t-135.5 -278q-45 -86 -110.5 -164.5t-157.5 -150.5q-199 -162 -373 -162q-61 0 -135 35q-84 41 -84 100 q0 12 9.5 32.5t9.5 27.5q0 25 -35 24q-47 0 -92 -33q-47 -35 -47 -77q0 -94 110 -127q57 -18 187 -19q199 0 374 96q137 76 306 244q68 68 176 228q72 111 124 208t82 187q72 213 117 518q8 55 16.5 123.5t16.5 152.5q-80 -35 -154 -73q-109 -362 -442 -777 q-117 -145 -289 -278q-213 -164 -352 -164q-92 0 -129 49q-33 41 -33 140q0 178 125 434q143 299 371 483q104 8 164 37q150 94 149 131q0 20 -49 20q-109 0 -221 -94q-109 0 -313 90l-130 -86q2 -37 308 -102q-158 -104 -332 -367q-217 -327 -217 -614zM1059 1536h8 q10 0 29 2l114 23q20 37 68 98q16 25 14 39q0 2 -4 2l-28 -8q-27 -8 -58 -9q-27 0 -47 7q-4 -16 -17.5 -41t-36 -53.5t-32.5 -44.5zM1325 1536q0 -6 8 -6q10 0 29 8l115 23q20 37 67 98q16 25 15 39q0 2 -5 2l-28 -8q-27 -8 -58 -9q-27 0 -47 7q-4 -16 -17 -41t-35.5 -53.5 t-33.5 -44.5z" />
<glyph unicode="&#x2c6;" horiz-adv-x="405" d="M119 752l45 -27q111 88 186 180q10 -41 27.5 -87t42.5 -93l96 31q-76 125 -84 239l-82 -22q-69 -112 -231 -221z" />
<glyph unicode="&#x2dc;" horiz-adv-x="512" d="M4 907l14 -10q43 45 61.5 45t96.5 -33q49 -20 111 -20q51 0 90 16q86 39 166 148l-15 14q-94 -66 -147 -66q-49 0 -137 41q-84 43 -92 43q-35 0 -148 -178z" />
<glyph unicode="&#x2000;" horiz-adv-x="919" />
<glyph unicode="&#x2001;" horiz-adv-x="1839" />
<glyph unicode="&#x2002;" horiz-adv-x="919" />
<glyph unicode="&#x2003;" horiz-adv-x="1839" />
<glyph unicode="&#x2004;" horiz-adv-x="612" />
<glyph unicode="&#x2005;" horiz-adv-x="458" />
<glyph unicode="&#x2006;" horiz-adv-x="305" />
<glyph unicode="&#x2007;" horiz-adv-x="305" />
<glyph unicode="&#x2008;" horiz-adv-x="229" />
<glyph unicode="&#x2009;" horiz-adv-x="366" />
<glyph unicode="&#x200a;" horiz-adv-x="100" />
<glyph unicode="&#x2010;" horiz-adv-x="614" d="M70 334q0 -16 6 -37l413 8q33 74 33 94q0 21 -43 21h-16l-357 -10q-6 0 -12 -9.5t-11 -22.5t-9 -25.5t-4 -18.5z" />
<glyph unicode="&#x2011;" horiz-adv-x="614" d="M70 334q0 -16 6 -37l413 8q33 74 33 94q0 21 -43 21h-16l-357 -10q-6 0 -12 -9.5t-11 -22.5t-9 -25.5t-4 -18.5z" />
<glyph unicode="&#x2012;" horiz-adv-x="614" d="M70 334q0 -16 6 -37l413 8q33 74 33 94q0 21 -43 21h-16l-357 -10q-6 0 -12 -9.5t-11 -22.5t-9 -25.5t-4 -18.5z" />
<glyph unicode="&#x2013;" horiz-adv-x="614" d="M-18 262q77 13 210 13q19 0 39 -1l177 -3q57 -1 53 -1q39 2 63 39q14 16 35 72q-66 -25 -174 -25q-23 0 -62.5 2t-97.5 7q-51 4 -91 5h-25q-24 0 -43 -1q-18 -2 -54 -56l-23 -39z" />
<glyph unicode="&#x2014;" horiz-adv-x="1228" d="M-6 262q77 13 431 13q51 0 107 -1l519 -4q53 0 102 111q-66 -25 -358 -25q-63 0 -169 2t-257 7q-119 4 -192 5h-43q-38 0 -56 -1q-18 -2 -53 -56l-24 -39z" />
<glyph unicode="&#x2018;" horiz-adv-x="225" d="M78 1096q0 -31 18 -31q45 0 109 33q0 70 47 153q27 47 67 76q0 12 -6 16q-88 0 -161.5 -79.5t-73.5 -167.5z" />
<glyph unicode="&#x2019;" horiz-adv-x="225" d="M102 1083q0 -14 7 -16q86 0 159 80q76 82 76 168q0 31 -18 31q-45 0 -109 -33q0 -70 -47 -154q-27 -47 -68 -76z" />
<glyph unicode="&#x201a;" horiz-adv-x="225" d="M102 -154q0 -14 7 -16q86 0 159 82q76 78 76 164q0 31 -18 30q-45 0 -109 -32q0 -70 -47 -152q-27 -47 -68 -76z" />
<glyph unicode="&#x201c;" horiz-adv-x="491" d="M78 1096q0 -31 18 -31q45 0 109 33q0 70 47 153q27 47 67 76q0 12 -6 16q-88 0 -161.5 -79.5t-73.5 -167.5zM344 1096q0 -31 18 -31q45 0 109 33q0 70 47 153q27 47 68 76q0 12 -6 16q-88 0 -162 -79.5t-74 -167.5z" />
<glyph unicode="&#x201d;" horiz-adv-x="491" d="M102 1083q0 -14 7 -16q86 0 159 80q76 82 76 168q0 31 -18 31q-45 0 -109 -33q0 -70 -47 -154q-27 -47 -68 -76zM369 1083q0 -14 6 -16q86 0 160 80q76 82 75 168q0 31 -18 31q-45 0 -109 -33q0 -70 -47 -154q-26 -47 -67 -76z" />
<glyph unicode="&#x201e;" horiz-adv-x="491" d="M102 -154q0 -14 7 -16q86 0 159 82q76 78 76 164q0 30 -18 30q-45 0 -109 -32q0 -70 -47 -152q-27 -47 -68 -76zM369 -154q0 -14 6 -16q86 0 160 82q76 78 75 164q0 31 -18 30q-45 0 -109 -32q0 -70 -47 -152q-26 -47 -67 -76z" />
<glyph unicode="&#x2022;" horiz-adv-x="851" d="M76 530q0 -109 96 -186q88 -74 201 -74q141 0 293 140q133 123 133 190q0 115 -113 197l-90 53l-90 55q-12 -12 -137 -61q-293 -115 -293 -314z" />
<glyph unicode="&#x2026;" horiz-adv-x="1228" d="M127 -12q0 -6 6 -19q156 0 156 133q0 41 -17 41q-27 0 -56.5 -16t-57.5 -16q-6 -90 -31 -123zM537 -12q0 -6 6 -19q156 0 155 133q0 41 -16 41q-27 0 -56.5 -16t-58.5 -16q-5 -90 -30 -123zM946 -12q0 -6 6 -19q156 0 156 133q0 41 -16 41q-27 0 -56.5 -16t-58.5 -16 q-6 -90 -31 -123z" />
<glyph unicode="&#x202f;" horiz-adv-x="366" />
<glyph unicode="&#x2039;" horiz-adv-x="450" d="M43 326l90 -127q39 -57 68 -105l96 64l-74 103l-69 97l90 67l90 62l-29 35l-139 -106z" />
<glyph unicode="&#x203a;" horiz-adv-x="450" d="M47 127l27 -33l51 39l80 60l81 59l52 39q-88 113 -158 231l-96 -63q41 -63 77 -113l66 -88l-90 -67z" />
<glyph unicode="&#x205f;" horiz-adv-x="458" />
<glyph unicode="&#x2122;" horiz-adv-x="2426" d="M35 643q4 -164 237 -164q88 0 215 61.5t189 129.5q238 262 237 608q0 31 -20 31q-8 0 -49 -29q-20 -14 -33.5 -22.5t-22.5 -10.5q-16 -262 -122 -461q-139 -250 -373 -251q-55 0 -94 26q-45 31 -45 84q0 51 51 139l76 102l63 83q0 18 -27 18q-12 0 -79 -26 q-70 -25 -78 -33q-125 -176 -125 -285zM287 1282q0 -23 22 -22h-1q0 4 106 40q121 45 178 54q72 10 127 16t92 6q23 0 76 -3t137 -11q47 66 47 78q0 35 -235 35q-96 0 -232 -19q-78 -10 -133 -23.5t-86 -27.5q-18 -25 -66 -78q-32 -35 -32 -45zM801 608q0 -76 32.5 -106.5 t108.5 -30.5q242 0 426 307q162 266 172 545l-117 -63q-2 -104 -34.5 -217t-96.5 -238q-141 -279 -293 -279q-35 0 -65.5 27t-30.5 61q0 70 84 185q66 88 121 129q12 6 12 43l-155 -56l-70 -91q-29 -38 -45 -64q-49 -84 -49 -152zM1307 1339q4 0 61 23q74 31 115 31 q127 0 127 -273q0 -76 -6.5 -155.5t-16.5 -165.5l-45 -334l105 63q14 41 28.5 74t28.5 55l156 243q61 93 92 132q53 70 119.5 143.5t148.5 151.5q-41 -82 -79 -176t-73 -205q-88 -264 -88 -401q0 -31 26 -54.5t56 -23.5q37 0 95 35q16 10 50 37l87 67l-31 25 q-109 -86 -127 -86q-43 0 -43 55q0 137 115 432q53 137 102 239.5t96 170.5q3 4 3 9q0 11 -13 28l-100 -27q-94 -78 -185.5 -176t-181.5 -219l-157 -232l-99 -147q0 8 6 63.5l17 159.5q10 94 15 171t5 136q0 100 -53 185q-62 98 -152 98h-4q-29 -2 -51 -4t-39 -6 q-110 -109 -110 -142z" />
<glyph unicode="&#xe000;" horiz-adv-x="610" d="M0 610h610v-610h-610v610z" />
<glyph unicode="&#xfb01;" horiz-adv-x="1013" d="M10 -305q0 -98 51 -98q106 0 263 186q92 113 129 184q51 96 51 215q0 106 -62 199q-25 37 -100 113q381 0 381 96q0 12 -14 20q-90 -31 -349 -30q29 113 61 211t64 184q92 238 146 237q14 0 35.5 -14t27.5 -14q18 0 35 67q10 57 10 86q0 18 -24 19q-88 0 -219 -193 q-156 -223 -271 -579q-33 10 -55 19l-33 13q-102 -43 -102 -69q0 -8 71 -37l53 -20q19 -7 29 -11q-18 -47 -44.5 -146.5t-61.5 -248.5q-72 -309 -72 -389zM145 -238q0 39 15.5 120t44 210t53.5 207t41 107q43 -39 82 -107q41 -78 41 -133q0 -165 -117 -334 q-86 -125 -135 -125q-25 0 -25 55zM684 66q0 -29 20.5 -56.5t49.5 -27.5q43 0 88 32l127 99q0 23 -21 22q-84 -68 -98 -67q-37 0 -37 43q0 45 78 247q70 184 102 234q0 18 -16 18q-8 0 -113 -43q-106 -45 -147 -53q0 -33 16 -33l82 21q-131 -332 -131 -436zM850 786 q0 -6 6 -18q86 0 139 37q63 43 64 125q0 31 -19 31q-12 0 -27.5 -5.5l-31.5 -11.5l-31 -11q-14 -5 -20 -5q-2 -63 -17 -86q-16 -29 -63 -56z" />
<glyph unicode="&#xfb02;" horiz-adv-x="1036" d="M10 -305q0 -98 51 -98q106 0 263 186q92 113 129 184q51 96 51 215q0 106 -62 199q-25 37 -100 113q381 0 381 96q0 12 -14 20q-90 -31 -349 -30q29 113 61 211t64 184q92 238 146 237q14 0 35.5 -14t27.5 -14q18 0 35 67q10 57 10 86q0 18 -24 19q-88 0 -219 -193 q-156 -223 -271 -579q-33 10 -55 19l-33 13q-102 -43 -102 -69q0 -8 71 -37l53 -20q19 -7 29 -11q-18 -47 -44.5 -146.5t-61.5 -248.5q-72 -309 -72 -389zM145 -238q0 39 15.5 120t44 210t53.5 207t41 107q43 -39 82 -107q41 -78 41 -133q0 -165 -117 -334 q-86 -125 -135 -125q-25 0 -25 55zM647 35q0 -51 49 -53q2 0 5 -1q32 0 133 50q98 47 137 73q0 25 -13 31l-45 -27l-32 -20q-61 -37 -80 -37q-20 0 -21 21q0 12 62 176l60 168l42 119q197 629 197 765q0 55 -6 56q-8 0 -101 -41q-51 -23 -91 -38l-69 -26q0 -33 17 -32 q10 0 57 20l45 16q16 6 21 9q0 -43 -90 -379q-41 -154 -71 -253.5t-48 -148.5l-135 -366q-23 -64 -23 -82z" />
<glyph unicode="&#xfb03;" horiz-adv-x="1646" d="M10 -305q0 -98 51 -98q106 0 263 186q92 113 129 184q51 96 51 215q0 106 -62 199q-25 37 -100 113q381 0 381 96q0 12 -14 20q-90 -31 -349 -30q29 113 61 211t64 184q92 238 146 237q14 0 35.5 -14t27.5 -14q18 0 35 67q10 57 10 86q0 18 -24 19q-88 0 -219 -193 q-156 -223 -271 -579q-33 10 -55 19l-33 13q-102 -43 -102 -69q0 -8 71 -37l53 -20q19 -7 29 -11q-18 -47 -44.5 -146.5t-61.5 -248.5q-72 -309 -72 -389zM145 -238q0 39 15.5 120t44 210t53.5 207t41 107q43 -39 82 -107q41 -78 41 -133q0 -165 -117 -334 q-86 -125 -135 -125q-25 0 -25 55zM643 -305q0 -98 51 -98q106 0 262 186q92 113 129 184q51 96 52 215q0 106 -62 199q-25 37 -100 113q381 0 381 96q0 12 -15 20q-90 -31 -348 -30q29 113 60.5 211t64.5 184q92 238 146 237q14 0 35.5 -14t27.5 -14q18 0 35 67 q10 57 10 86q0 18 -24 19q-88 0 -220 -193q-156 -223 -270 -579q-33 10 -55 19l-33 13q-102 -43 -102 -69q0 -8 71 -37l53 -20q19 -7 29 -11q-18 -47 -44.5 -146.5t-61.5 -248.5q-72 -309 -72 -389zM778 -238q0 39 15.5 120t44 210t53 207t41.5 107q43 -39 82 -107 q41 -78 41 -133q0 -165 -117 -334q-86 -125 -135 -125q-25 0 -25 55zM1317 66q0 -29 20.5 -56.5t48.5 -27.5q43 0 89 32l127 99q0 23 -21 22q-84 -68 -98 -67q-37 0 -37 43q0 45 78 247q70 184 102 234q0 18 -16 18q-8 0 -113 -43q-106 -45 -147 -53q0 -33 16 -33l82 21 q-131 -332 -131 -436zM1483 786q0 -6 6 -18q86 0 139 37q63 43 64 125q0 31 -19 31q-12 0 -27.5 -5.5l-31.5 -11.5l-31 -11q-14 -5 -20 -5q-2 -63 -17 -86q-16 -29 -63 -56z" />
<glyph unicode="&#xfb04;" horiz-adv-x="1669" d="M10 -305q0 -98 51 -98q106 0 263 186q92 113 129 184q51 96 51 215q0 106 -62 199q-25 37 -100 113q381 0 381 96q0 12 -14 20q-90 -31 -349 -30q29 113 61 211t64 184q92 238 146 237q14 0 35.5 -14t27.5 -14q18 0 35 67q10 57 10 86q0 18 -24 19q-88 0 -219 -193 q-156 -223 -271 -579q-33 10 -55 19l-33 13q-102 -43 -102 -69q0 -8 71 -37l53 -20q19 -7 29 -11q-18 -47 -44.5 -146.5t-61.5 -248.5q-72 -309 -72 -389zM145 -238q0 39 15.5 120t44 210t53.5 207t41 107q43 -39 82 -107q41 -78 41 -133q0 -165 -117 -334 q-86 -125 -135 -125q-25 0 -25 55zM643 -305q0 -98 51 -98q106 0 262 186q92 113 129 184q51 96 52 215q0 106 -62 199q-25 37 -100 113q381 0 381 96q0 12 -15 20q-90 -31 -348 -30q29 113 60.5 211t64.5 184q92 238 146 237q14 0 35.5 -14t27.5 -14q18 0 35 67 q10 57 10 86q0 18 -24 19q-88 0 -220 -193q-156 -223 -270 -579q-33 10 -55 19l-33 13q-102 -43 -102 -69q0 -8 71 -37l53 -20q19 -7 29 -11q-18 -47 -44.5 -146.5t-61.5 -248.5q-72 -309 -72 -389zM778 -238q0 39 15.5 120t44 210t53 207t41.5 107q43 -39 82 -107 q41 -78 41 -133q0 -165 -117 -334q-86 -125 -135 -125q-25 0 -25 55zM1280 35q0 -51 49 -53q2 0 5 -1q32 0 132 50q98 47 138 73q0 25 -13 31l-45 -27l-33 -20q-61 -37 -79 -37q-20 0 -21 21q0 12 62 176l60 168l42 119q197 629 197 765q0 55 -7 56q-8 0 -100 -41 q-51 -23 -91 -38l-69 -26q0 -33 17 -32q10 0 57 20l45 16q16 6 21 9q0 -43 -91 -379q-41 -154 -70.5 -253.5t-47.5 -148.5l-135 -366q-23 -64 -23 -82z" />
</font>
</defs>
</svg>
